<svg xmlns="http://www.w3.org/2000/svg" width="21" height="19" fill="none" viewBox="0 0 21 19">
  <path fill="#fff" d="M10.414 2.92a.34.34 0 00-.469 0l-7.807 7.4a.337.337 0 00-.105.244l-.002 6.944c0 .357.143.7.398.952.255.253.6.395.96.395h4.075c.18 0 .353-.071.48-.198a.67.67 0 00.199-.476V12.46a.34.34 0 01.34-.337h3.392a.34.34 0 01.34.338v5.721c0 .179.07.35.198.476a.68.68 0 00.48.198h4.074c.36 0 .705-.142.96-.395a1.34 1.34 0 00.397-.952v-6.944a.335.335 0 00-.105-.244l-7.805-7.4z"/>
  <path fill="#fff" d="M20.141 8.932L16.97 5.92V1.352a.67.67 0 00-.199-.476.681.681 0 00-.48-.197h-2.035c-.18 0-.353.07-.48.197a.67.67 0 00-.199.476v1.346L11.12.368c-.23-.23-.572-.362-.941-.362s-.71.132-.94.363L.22 8.93a.682.682 0 00-.057.94.678.678 0 00.752.19.68.68 0 00.231-.145l8.8-8.342a.34.34 0 01.47 0l8.8 8.342a.682.682 0 00.959-.018.686.686 0 00-.033-.966z"/>
</svg>
