<?xml version="1.0" encoding="UTF-8"?>
<!-- Generator: Adobe Illustrator 22.1.0, SVG Export Plug-In . SVG Version: 6.00 Build 0)  -->
<svg xmlns="http://www.w3.org/2000/svg" xmlns:xlink="http://www.w3.org/1999/xlink" id="Layer_1" x="0px" y="0px" viewBox="0 0 500 500" xml:space="preserve">
<g>
	<g>
		<path fill="#FFFFFF" d="M88.6,461.1c0,0.1,0,0.3,0,0.4c0,0.1,0,0.3-0.1,0.5c-0.1,0.3-0.2,0.5-0.3,0.6c-0.1,0.1-0.1,0.2-0.2,0.2    c0,0-0.1,0.1-0.1,0.1c-0.1,0.1-0.2,0.1-0.2,0.2c-0.2,0.2-0.3,0.2-0.4,0.3c-0.1,0.1,0.1,0.1-0.1,0.2c0.1,0,0.2-0.1,0.3-0.1    c0.1,0,0.2-0.1,0.3-0.2c0.1-0.1,0.2-0.2,0.3-0.3c0.1-0.1,0.3-0.3,0.4-0.4c0-0.1,0.1-0.2,0.1-0.2c0-0.1,0.1-0.2,0.1-0.3    c0.1-0.2,0.1-0.4,0.1-0.5c0-0.3,0-0.5-0.1-0.7c-0.1-0.3-0.2-0.4-0.3-0.5c-0.1-0.1-0.1-0.1-0.1,0c0,0,0,0.2,0.1,0.4    C88.6,460.9,88.6,461.1,88.6,461.1z"></path>
		<polygon fill="#FFFFFF" points="74.1,457.2 74.4,457.2 72.3,457.1   "></polygon>
		<path fill="#FFFFFF" d="M83,456.8c-1.3-0.2-4.6,0.9-6.8,1.2l-0.4,0l-0.9,0.6C77.6,457.9,81.1,457,83,456.8z"></path>
		<path fill="#FFFFFF" d="M89.9,456.5c-0.4-0.1,1.4-0.4-1.6,0.2c0.2,0,0.2,0,0.3,0C88.9,456.7,89.3,456.6,89.9,456.5z"></path>
		<path fill="#FFFFFF" d="M88.6,456.7C87.3,457,89.5,456.7,88.6,456.7L88.6,456.7z"></path>
		<path fill="#FFFFFF" d="M90.1,452.1l1.8-0.1c-0.4-0.1-1.9-0.2-1.4-0.3C88.7,451.8,89.1,451.9,90.1,452.1z"></path>
		<path fill="#FFFFFF" d="M88.4,452.4l0.9,0C89.2,452.3,88.9,452.3,88.4,452.4z"></path>
		<path fill="#FFFFFF" d="M91.3,452.3l-2,0.1c0.3,0.1,0.3,0.2,0.9,0C90.1,452.5,90.5,452.4,91.3,452.3z"></path>
		<path fill="#FFFFFF" d="M92.5,455.7c-1,0.1-2.3,0.3-0.6-0.2C88.6,456.2,89.1,456.4,92.5,455.7z"></path>
		<path fill="#FFFFFF" d="M83.6,456.2l-1.3,0.1l-1.1,0.4C81.7,456.5,83.7,456.3,83.6,456.2z"></path>
		<path fill="#FFFFFF" d="M79.1,451.4c-0.1,0.1,0.6,0.3,0.7,0.4l1.3-0.1C80.4,451.7,79.1,451.6,79.1,451.4z"></path>
		<path fill="#FFFFFF" d="M79.8,451.9l-2,0.1C79.6,452,79.9,452,79.8,451.9z"></path>
		<polygon fill="#FFFFFF" points="88.1,452.9 91.3,452.7 87.5,452.9   "></polygon>
		<polygon fill="#FFFFFF" points="71.6,451.1 72.7,450.9 70.7,451.2   "></polygon>
		<path fill="#FFFFFF" d="M66.6,450.9c0.8-0.2-1.1-0.4-0.2-0.4c-1.4,0-2.5,0.1-3.6,0.2C63.9,450.6,65.1,450.7,66.6,450.9z"></path>
		<path fill="#FFFFFF" d="M61,450.8c0.6,0,1.1-0.1,1.8-0.1C62.2,450.7,61.6,450.7,61,450.8z"></path>
		<path fill="#FFFFFF" d="M74.5,451.7c-0.1-0.1-0.4-0.2-1.5-0.3l0.8,0.3C73.9,451.7,74.2,451.7,74.5,451.7z"></path>
		<path fill="#FFFFFF" d="M73.7,451.7L73.7,451.7c-0.9-0.1-1.4-0.1-1.7-0.1C72.2,451.6,72.7,451.7,73.7,451.7z"></path>
		<path fill="#FFFFFF" d="M74.7,451.8c-0.1,0-0.1,0-0.2,0C74.5,451.8,74.6,451.8,74.7,451.8z"></path>
		<path fill="#FFFFFF" d="M82.9,452.4c-1.2,0.1-3.6,0.2-1.3,0.5C82.5,452.8,81.2,452.6,82.9,452.4z"></path>
		<path fill="#FFFFFF" d="M75.6,452.1l2.1,0.2c0-0.1-0.4-0.2,0.2-0.2L75.6,452.1z"></path>
		<polygon fill="#FFFFFF" points="74.6,452.2 75.6,452.1 74.8,452.1   "></polygon>
		<path fill="#FFFFFF" d="M64.6,451.2c-0.9,0.1-1.9,0-3,0c1.2,0.1,2.4,0.2,3.6,0.2C65.3,451.4,65.9,451.3,64.6,451.2z"></path>
		<path fill="#FFFFFF" d="M69,451.5c-0.1,0-0.1,0-0.2,0C68.9,451.5,69,451.5,69,451.5z"></path>
		<path fill="#FFFFFF" d="M51.5,452.1c-0.1,0-0.1,0-0.2,0l0,0l1.3-2l0,0l0,0l-1.3,2.1L51.5,452.1z"></path>
		<path fill="#FFFFFF" d="M65.4,451.5c0.9,0.1,1.4,0,1.9,0c-0.7,0-1.4,0-2.1,0C65.1,451.5,65.1,451.5,65.4,451.5z"></path>
		<path fill="#FFFFFF" d="M58,450.8c0.5,0.1,1,0.1,1.5,0.2C59.1,450.9,58.1,450.7,58,450.8z"></path>
		<path fill="#FFFFFF" d="M68.5,451.4c0,0,0.1,0,0.1,0C68.4,451.3,68.4,451.4,68.5,451.4z"></path>
		<path fill="#FFFFFF" d="M68.5,451.4c-0.5,0-0.8,0.1-1.2,0.1c0.5,0,1.1,0,1.5,0C68.7,451.5,68.6,451.4,68.5,451.4z"></path>
		<path fill="#FFFFFF" d="M54.8,450.3c-0.1,0.2-1.8,0.5-3.5,0.4l0.1-0.1c0.1,0.3,0.3,0.6,0.6,0.8c0.4,0.3,0.8,0.3,0.9,0.2    c0.2-0.1,0.2-0.2,0.1-0.4c-0.1-0.2-0.2-0.4-0.3-0.7c0-0.1,0-0.1-0.1-0.2c0-0.1,0-0.1,0-0.2c0,0,0-0.1,0-0.1c0,0,0.1-0.1,0,0    l-1.3,2l0,0c0.1-0.1,0.1-0.2,2.1-0.4c-0.3-0.1-1.3-0.1-2.1-0.2l0.8-1.2c0,0.2,0.2,0.4,0.3,0.5c0.1,0.1,0,0.2-0.3,0    c-0.2-0.1-0.2-0.3-0.3-0.4l-0.5,0.7c1.9-0.1,1.7,0.1,2.9,0.2c-1.1-0.3,3.5-0.6,2.9-1l-2.4,0.2C54.6,450.5,55.5,450.3,54.8,450.3z"></path>
		<path fill="#FFFFFF" d="M54.9,450.9c0.3,0,0.5,0.1,0.8,0.1c-0.4-0.1-0.8-0.2-1.2-0.3c-0.4-0.1-0.8-0.3-1.1-0.6    c-0.4-0.1-0.5-0.2-0.5-0.1c-0.1,0.1-0.1,0.1-0.2,0.1c0,0,0,0,0.1,0c0,0,0,0,0,0c0,0,0,0,0,0c0,0,0.1,0.1,0.1,0.1    c0.1,0.1,0.3,0.2,0.6,0.3c0.5,0.2,1.1,0.3,1.7,0.4L54.9,450.9z"></path>
		<path fill="#FFFFFF" d="M59.4,451.2c-0.7,0.2-2.7,0.3-1.5,0.6c2.5,0.1,1.8-0.2,3.2-0.2C57.1,451.5,62.3,451.5,59.4,451.2    c0.8,0,1.5,0,2.2,0.1c-0.7-0.1-1.4-0.1-2.1-0.2c0,0,0.1,0,0.1,0l0,0l0,0c0.2,0,0.2,0.1,0,0c0,0-0.1,0-0.1,0    C59.5,451.1,59.5,451.2,59.4,451.2c-1.2-0.1-0.2-0.1,0.2-0.1c0,0,0,0,0.1,0l0,0l-2,0c-0.7,0-1.3,0-1.9-0.1    c0.4,0.1,0.8,0.1,1.4,0.1C57.7,451.1,58.4,451.2,59.4,451.2z"></path>
		<path fill="#FFFFFF" d="M79.5,453.4c-0.1,0-0.1,0-0.1-0.1C79.1,453.4,79,453.4,79.5,453.4z"></path>
		<path fill="#FFFFFF" d="M77.9,453.2c0.3,0,0.5-0.1,1.5-0.1c0.8,0.1,0,0.1,0,0.2c0.6,0,2-0.1,0.2-0.3l-0.3,0    c-1.6-0.2-3.7-0.6-3.4-0.6C76.4,452.7,76.8,452.9,77.9,453.2z"></path>
		<path fill="#FFFFFF" d="M68.5,452.3l-3.4,0l1.7,0.3l-0.1-0.1C68.7,452.6,68.3,452.4,68.5,452.3z"></path>
		<polygon fill="#FFFFFF" points="51.9,452.3 51.5,452.6 53.4,452.1   "></polygon>
		<polygon fill="#FFFFFF" points="56.3,452.1 56.1,452.4 57.3,452.2   "></polygon>
		<path fill="#FFFFFF" d="M54.7,433.3l1-0.1C55.2,433.2,54.9,433.2,54.7,433.3z"></path>
		<path fill="#FFFFFF" d="M47.5,433.4l-0.2,0.1C47.7,433.5,47.8,433.4,47.5,433.4z"></path>
		<path fill="#FFFFFF" d="M128.2,442.9c-1.4-0.4-3-0.9-2.8-0.6l0.4,0.3C126.8,442.7,127.5,442.8,128.2,442.9z"></path>
		<path fill="#FFFFFF" d="M54.8,439.6c0.1,0,0.3,0.1,0.4,0.1c0.4-0.1,0.7-0.2,1-0.2C55.8,439.5,55.3,439.5,54.8,439.6z"></path>
		<path fill="#FFFFFF" d="M53.8,440.7l-1.9-0.2C52.3,440.5,52.9,440.6,53.8,440.7z"></path>
		<path fill="#FFFFFF" d="M93.7,432.6l1.1-0.3C93,432.3,93.8,432.4,93.7,432.6z"></path>
		<path fill="#FFFFFF" d="M100.9,450.5c1.2,0.1,2.2,0.1,3.1,0C102.5,450.4,101.3,450.2,100.9,450.5z"></path>
		<path fill="#FFFFFF" d="M51.9,436.3c0.6-0.1,0.9-0.1,0.8-0.2C52.2,436.2,51.8,436.2,51.9,436.3z"></path>
		<path fill="#FFFFFF" d="M107.6,450.3c-0.2,0-0.4,0-0.7,0c-0.9,0.1-1.8,0.2-2.9,0.2C105.1,450.6,106.4,450.6,107.6,450.3z"></path>
		<path fill="#FFFFFF" d="M63.4,431.2c-0.1,0-0.2,0-0.3,0C63.1,431.2,63.2,431.2,63.4,431.2z"></path>
		<path fill="#FFFFFF" d="M22.2,428.4c0.4,0,1.1,0,1.7,0C23.6,428.4,23.1,428.4,22.2,428.4z"></path>
		<path fill="#FFFFFF" d="M73.8,451.7C72.9,451.8,73.7,451.8,73.8,451.7L73.8,451.7z"></path>
		<path fill="#FFFFFF" d="M69.3,450.8c0.2,0,0.3-0.1,0.4-0.1C69.6,450.7,69.4,450.7,69.3,450.8z"></path>
		<path fill="#FFFFFF" d="M116.7,448.1C116.8,448.1,116.8,448.1,116.7,448.1C116.5,448.1,116.6,448.1,116.7,448.1z"></path>
		<path fill="#FFFFFF" d="M72.4,451.6c0.3,0,0.7,0,1.2,0C73.4,451.7,73.1,451.7,72.4,451.6z"></path>
		<path fill="#FFFFFF" d="M72.6,451.8c-0.3,0-0.6,0-0.8,0C71.7,451.8,71.8,451.9,72.6,451.8z"></path>
		<path fill="#FFFFFF" d="M75.1,451.7c-0.5,0-1,0-1.5,0c0.2,0,0.3,0,0.2,0C74.1,451.7,74.5,451.7,75.1,451.7z"></path>
		<path fill="#FFFFFF" d="M139.2,431.8c-0.1,0-0.1,0-0.2,0C138,431.8,138.4,431.8,139.2,431.8z"></path>
		<path fill="#FFFFFF" d="M103.9,443.6c0,0,0.1,0,0.1,0C104,443.6,103.9,443.6,103.9,443.6L103.9,443.6z"></path>
		<path fill="#FFFFFF" d="M100.6,443.6c1.4-0.2,2.2-0.1,3.3,0l-1-0.9L100.6,443.6z"></path>
		<path fill="#FFFFFF" d="M71.8,433l-2.3-0.2c2.8-0.4,4.9-0.3,2.7-0.6c-0.3,0.9-9.1,0.2-9.4,1.1l-1.5-0.2c0.4,0,0.5-0.1,0.9,0    c-3-0.4-2.2,0.7-6.1,0.6c-1.3,0-2.3-0.1-1.4-0.3l-3,0.3c-0.9,0-0.7-0.2,0.2-0.2l-4.6,0.2l0,0c-0.6,0.2-2.1,0.4-2.8,0.5    c-1.2-0.1,0.6-0.1,0.3-0.2l-2.5,0.3c-1-0.2,1-0.5,2.8-0.5c-2.4-0.8-2.1,0.3-7.2,0l2.4-0.2c-1.6-0.4-3.4-0.1-6.1-0.3    c0.7,0.1,5.5,0.5,2.7,0.9c-0.8,0-1.8,0-3.3,0.2c0-0.3-1.5-0.2-3.3,0l0.1-0.4c-2,0.3-1.8,0.5-3,0.9c-2.3,0.3-2.8,0.2-3.4,0.1    c-1.9,0.5-1.2,0.5-0.6,0.4c0.3,0,0.6,0,0.5,0.1c-0.1,0.1-0.5,0.2-1.5,0.7c-0.3,0.1-0.6,0.2-0.8,0.3l-5.2,2l5.6,0.9    c2.5,0.4,4.5,0.5,7.7,0.5c2,0.3-0.4,0.2,0.3,0.4l1.8-0.2c0.4,0,0.3,0.1,0.2,0.2c1.5,0,0.2-0.4,2.6-0.4c0.7-0.4,4.9,0.9,7.9,0.5    c0.7,0.1-0.4,0.2-0.1,0.4c4.1-0.2,3.5-0.1,6.8-0.5l2.8,0.4c-2.1-0.4,0.6-0.7,2.9-0.9c-0.7-0.2-1.4-0.3-1.8-0.4l3.7-0.1    c0.4,0.1,0.1,0.2-0.5,0.4c0.3,0,0.5-0.1,0.7-0.1c1.3,0.2,0.6,0.4-0.3,0.6c-0.4-0.1-0.9-0.2-1.3-0.3c-0.9,0.2-1.8,0.5-1.6,0.7    c0.2,0,0.7-0.1,1.2-0.1c-0.2,0.1-0.4,0.1-0.3,0.2c0.1,0,0.5,0,1.1-0.1l0.8,0.5l0.2-0.2l4.8,0.5c3.5-0.3,6.5-0.9,12.1-0.8    c-1.4,0.3-0.3,0.5-0.4,0.9c-1.5-0.5-4.3,0-7.1-0.2c1.5,0.1,1.2,0.3,0.8,0.3l5.1-0.1c-0.1,0.3,1.1,0.3,2.4,0.5    c-1-0.7,3.8-0.2,5.9-0.3c0.1,0.2-0.4,0.4-2.9,0.2c2.8,0.6,3.6-0.6,6.4,0c-0.6,0-0.9-0.1-1.2,0c1.5-0.1,5,0.3,4.1,0.4l-0.6,0    c4.1,0.3,12.5,0.9,13.1,0.4c0,0.1-0.6,0.6-0.8,0.7l7.4-1.3c-0.7,0.4,1.7,1.7-1.7,1.7c1,0.1,2.2,0.3,4.2,0.3    c-0.7-0.1-1.6-0.8-0.7-0.8c2.4,0.7,1.7,0.4,4.7,1.1c-1-0.2,0.2-0.8,1.8-0.7c-0.3,0.1,0.1,0.7-0.5,0.8l4-0.4c-1,0-0.2,0.6,0.6,0.9    c-0.4-0.2,3.4,0.3,4.4,0.4l-1.6-0.3c4.4,0.5,4.5-0.6,8.8-0.1c-0.5,0.1-1.4,0.8,0.8,1.1c1.1-0.3,4.7-1.3,8.6-1.1l0.7,0.3l3,0.1    c-1.9,0.3-7.2,0.9-10.1,1c1.6,0.3,0.4,0.3,2.9,0.6c0.8,0.3-1.4,0.1-2.1,0.1l5.7,0.8c-0.2-0.5,4.4,0.1,4.3-0.3l-6.3-0.3    c-0.2-0.5,3.8-0.8,7.8-0.2c1,0.3-0.9,0.7-0.8,0.8c0.2,0,0.6,0,1.1,0l0.1-2.4c-1.2,0.2-2.9,0.3-3.2,0.3l1.7-0.3    c-2.3,0-3.7,0.8-6.5,0.6c-0.9,0-2.9-0.4-3-0.1c1.6,0.4,2,1.9,1,2.3c-0.3,0-5-0.2-6.1-0.4c-1.6-0.3,2.3-1.1,0.9-1.3    c-0.1,0.1-0.9,0.3-1.3,0.4c-1,0,0.4-0.4-1.8-0.2c-0.3,0.5-4.4,0.2-1,0.4c-2.1,0.2-2.3,0-4.7,0.2c0.8,0.2-2.2,1.1-4.3,1.3    c0.1-0.1-0.4-0.2-0.6-0.3c-4.3,0.2-6.7,0.1-10.7,0.3c-0.4-0.1-2.3-0.1-1.5-0.4c-0.6,0.1-1.1,0.3-2.4,0.3c-2.4-0.3,2.8-0.2,0.9-0.6    c-0.1,0.3-3.2,0.5-5,0.7c0.6,0.4,4.1-0.1,5.9-0.3c0,0.5-3,1.3-7.3,1.7c-3.4,0.3-1.5-0.3-2.1-0.2c-6.3,0.2-5.3,1.2-10.6,1    c-2.1-0.3-0.1-0.7-0.6-0.9c2.7-0.2,4.2,0.1,6.1,0l-2.3-0.1c0.9-0.2,2.7-0.3,3.7-0.2c-1.8-0.2-10.7,0.4-15.5,0.2    c-0.9,0.1-2.3,0.3-1.6,0.4l1.5-0.1c1.4,0.2-2.9,0.5-0.9,0.5c-2.1,0.3-4.4,0.7-7.3,0.6l-0.6-0.4c0.1,0.1,1.9,0.2,2.7,0    c-1.2,0.2-4.5-0.4-5.8,0.2l2,0.2c-2.1,0.3-4.6,0.8-7.2,0.7c1.2,0.4,0.6-0.1,2.4,0.3c-1.6-0.5,6.6-0.2,4-0.7    c1.9,0.5,3.3,0.1,5.7,0.5c-0.1-0.1-0.9-0.2,1.3-0.2c0.1,0,0.3-0.1,0.5-0.1c0.1,0,0.1,0,0.1,0c0,0-0.1,0-0.1,0c0.1,0,0.1,0,0,0    c-0.5,0-0.9-0.1-1.1-0.2c1.1-0.3,4.5-0.4,5.7-0.6c1.3,0-0.5,0.2,0.2,0.3l1.7-0.3c0.2,0.3,3.4,0.4,0.4,0.6l2.7-0.1    c1.6,0.1,3.8,0.1,5.2-0.1c1.3,0,3.2-0.4,2.1-0.2l4.3-0.4l0,0.1c4.2-0.1,8.7-0.8,13.5-0.6c1.4-0.1,2.9-0.3,5.3-0.3l0.5,0.2    c1.8-0.2,5.5,0,6.2-0.3c2,0.6,8.8-0.3,12.1-0.4l0.1-0.3c2.2-0.1,4.3-0.3,7-0.6l-0.2-0.3c1.9-0.3,4.7-0.2,7.7-0.3l0.1-2.8    c-0.7-0.1-1.4-0.2-2.1-0.3c0.3-0.1,1.2,0.1,1.9,0.2c-4.4-1.2-9.4-0.6-13.4-1.5c-1,0-1.7-0.1-2.4-0.3c0.1,0,0.2,0,0.3,0    c-0.1,0-0.3,0-0.4,0c-0.4-0.1-0.9-0.2-1.4-0.3c0.4,0.1,0.8,0.2,1.2,0.3c-0.8-0.1-2-0.2-3.1-0.2l-0.5-0.4c-0.1,0-0.2,0-0.3,0    c-1.1-0.2-0.9,0.1-0.3,0.3c-0.6,0-1.1,0-1.5,0c-0.9-0.6-3-0.1-4.2-0.8c-0.8,0.2-5.8-0.3-6.5,0.1c0-0.1-0.4-0.1,0.3-0.1    c-1.3-0.2-2.6-0.4-3.7-0.3l-0.5-0.4l-2.9,0.3c-1.7-0.4-2.4-0.6-0.7-0.7c-4.1,0.1-3.3-0.1-6.8,0.1l0.2-0.2c-1.2-0.1-3.3,0.1-4-0.2    c-2.7-0.7-13.8-1-20.9-1.8c1.3,0.8-3.3-0.5-3.6,0.1c-0.4-0.2-1.4-0.3-0.2-0.4c-3.7,0-5.5-0.5-8-0.1c-0.4-0.2,0.8-0.2,0.4-0.3    c-0.3,0-1.2,0.1-1.5,0c-0.4-0.1,0.5-0.1,1.1-0.2c-3.7-0.1-4.1,0.4-4.4,0.9c-1.9-0.3-2.8-0.3-4.2,0c-0.7-0.2-1.7-0.4,0.6-0.4    c-1.3-0.1-8-0.5-8.1-0.1c-0.4-0.1-1.8-0.1-2.2-0.1c-2.9-0.1-3.2-0.2-6-0.3l0.8,0.1c-1.2,0.4-2.4,0-4.7-0.1l0.1,0    c-2.6-0.3-3.2-0.4-3.8-0.4c-0.6,0-1.1,0-3.7-0.5l0.3,0.3c-0.4,0.4-2.3-0.1-4.4-0.6l0.2,1.3c1-0.3,2-0.6,2.9-0.9    c-0.4,0-0.7,0.1-1.1,0.1c0.7-0.3,1.9-0.4,3.1-0.3c1.2,0.1,2.3,0.3,3.1,0.2c0.4,0-0.6,0.1-1,0.2c2.1,0,2.3-0.1,2.3-0.3    c0-0.2-0.2-0.4,1.4-0.5c0.6,0.2-0.7,0.6,1.4,0.5c1.1,0.1,6.3-1,9.3-0.7c-0.7-0.1-1.3-0.3,0.2-0.5c1.2-0.1,2.7,0,4.3,0.1    c1.5,0.1,3,0.1,4.1-0.2c0.3,0,0.4,0.1,0.4,0.1c1.8-0.2,5.7-0.3,6.8-0.6c1.6,1,11-0.6,11,0.3l5.4-0.1l-0.1,0.1    c3.5,0,4.7-0.2,5.9-0.4c0.8,0.1,0.2,0.2,0.2,0.2c5.1,0.2,5.6,0.1,9.9-0.4l0.4,0.3c1.2-0.2,7.4,0.4,12.4-0.1c0,0-0.2,0.1-0.5,0.2    c2.8-0.2,6.2-0.1,9.1-0.1c2.9,0,5.4-0.1,6.4-0.7c1.2-0.1,2.5-0.3,3.7-0.5c-4.8,0.2,0.7-0.5-1.3-0.6c1.9-0.2,4.9,0.1,2.6,0.3    l-0.4,0c-0.4,0.3,1.1,0.3,2.7,0.2c1.6-0.1,3.2-0.2,3.2,0c6.6-0.4,13.1-1,19.4-1.7l-0.1-2.6c-2.7-0.1-5.4-0.2-8.1-0.3l1,0.5    l-3.1-0.1c-0.8-0.1-1.1-0.4,1.1-0.3c-1.1-0.3-3.7,0.1-3.8,0.2c-4.3-0.3,1.7-0.5,0.4-0.6l-1.8,0l0.4,0.1c-1.5,0.2-1.6,0.4-4.2,0.3    c-1.7-0.1-0.8-0.3-1.5-0.3c0,0-0.2-0.1-1,0l-3.9-0.1l1.5,0.4c-1.7,0.1-3.6-0.1-1.9,0.4c-2.6-0.7-14.5-0.6-16.1-0.8    c-2.4,0.2-4.8,0.2-7.7,0.1c0.7,0.1,1.2,0.5-1.4,0.4c0.9-0.9-4.6-0.5-6.7-1.1c1.8,0.4-7.2,0-4.4,0.6c-2.1-0.1-0.1-0.3-1.7-0.5    c-5.1,0.3-11.1-0.3-17.4-0.3c-0.1,0.1,0.9,0.3-0.4,0.5l-3.3-0.6c-1.2,0-1.1,0.6-3.4,0.2c0.3,0.1,0.8,0.2,0,0.3    c-12.2-0.6-25,0.4-37.4-0.6c1.7,0.2,0.6,0.2-0.7,0.3c0.8,0,0,0.3,0.1,0.4l-5.2-0.4c-0.9,0.4-5.6,0.1-6.1,0.5l1.6-0.1    c-2.2,0.5,3.1,1,2.8,1.7c2.4-0.6,6.5,0.8,10.5,0c0.9,0.1-0.8,0.2-0.3,0.3c1-0.3,2.2-0.3,4.5-0.2l-0.3,0.1    c6.4-0.1,9.1,0.2,16.3,0.3l-0.5-0.3c1.5,0,1.9,0.1,2.6,0.2c1.8-0.5-4.3,0-2.7-0.5c2,0.6,10.9,0,12.3,0.8c2.4,0-0.7-0.4,1.7-0.3    l0.6,0.2l0.6-0.2c1.6,0.1,2.3,0.3,2.4,0.5c-0.4,0-1.1,0-1.5,0c2,0.2,5.7,0,6.4,0l-2.3-0.1C74,431,82,431.3,88.2,431l-0.5-0.1    c4.8-0.2,3.8,0.2,9.1,0.2l-0.2,0c1.1-0.1,2.5-0.2,3.9-0.1c-1.3,0.1,2.5,0.4,0.7,0.5c5.2-0.2,2.6-0.2,6-0.7l0.8,0.3    c1.2-0.2,1.3-0.3,3.9-0.3c-2.2,0.2,1.7,0.4-0.7,0.6c5.5,0.6,8.2-0.3,10.7,0.5c2.5-0.6-4.8-0.5-3.3-0.6c-1.2-0.2,2.1-0.4,3.8-0.3    c1.8,0.1,3,0.9,7.4,1c-0.4,0-0.5,0-0.9,0c1.7,0.2,3.3-0.1,5.3,0.2c1.1-0.4,2.6,0.1,3-0.4l-4.1,0c2.3-0.1,4.5-0.6,8.3-0.2    c-0.3,0.1-1.4,0.2-2.2,0.3c1.1,0.2,2.1,0,3.3,0.2c-0.3,0.5-4.9,0-7.4,0.3c1.2,0.2,4.7-0.2,3.4,0.3c1.8-0.7,4.4,0.2,7.4-0.2    l-0.2,0.3c0.5,0,1.5-0.1,2.3-0.1l-1.6,0.3c1-0.1,1.9-0.1,2.8,0l-0.2-3.2c-1.4,0.1-2.8,0-4.2,0.3c4.8-0.6,1.1,0.2,3.2,0.2    c-2.9,0.6-3.8,0.5-4.8,0.3c-1-0.1-2-0.3-5.4,0.1c0.9-0.1,3.4-0.1,2,0.1c-1.3,0.1-3,0.1-3.8,0c-4.4,0.5,0.7,0.3-1.2,0.6    c-1.5-0.3-2.2,0.3-4.1,0.6l0-0.3c-5.1,0.2-1.3,0.8-5.9,0.8l1.9-0.5l-2.4,0.2l0.5-0.4c-2.6,0.4-3.4,0.4-5.9,0.4    c0.6,0.2-0.3,0.6-2.6,0.7c-1.5-0.1,0.8-0.3-2.3-0.2c0.7-0.2,1.5-0.5,2.9-0.3c0.1-0.1,0.7-0.2,0.8-0.3c-1.7-0.1-4.1,0.1-5.3,0.2    c0.4,0,1,0,1.2,0l-4.6,0.6c-0.7-0.1-0.2-0.2,0.4-0.3c-0.9,0.1-1.6,0.2-3,0.3c0.3-0.3,0.3-0.5,2.2-0.7l-4.4,0.4    c-0.3-0.1-2.3-0.3-1.7-0.4c-2.4-0.1-6,0.6-9.2,0.4c-0.2,0.1-0.5,0.1-1.2,0.1c-3,0-5.7-0.3-9.3,0.1l-2.1-0.4    c-2.8,0.1,2.8,0.6-1.9,0.8c-3.3,0.2-1.2-0.4-2.4-0.5c-1.7,0.2-4.5,0.7-7.6,0.4C70,432.9,70.8,433,71.8,433z M36.9,434    c0.7-0.1,2-0.4,2.5-0.2C38.6,434.2,38,434,36.9,434z M59.9,440.3c-0.5,0.1-1.3,0-2.2-0.1C58.4,440.2,59.1,440.2,59.9,440.3z     M83.9,451.1C84,451.1,84,451.1,83.9,451.1C85.5,451.2,85,451.1,83.9,451.1z M80.8,451.1c-0.3,0.1-0.3,0.1-0.2,0.1    c0.2-0.1,0.9-0.1,1.7-0.1C82.2,451,81.7,451,80.8,451.1z M129.3,429.4l0.6,0.1C128.6,429.6,129,429.5,129.3,429.4z"></path>
		<path fill="#FFFFFF" d="M53.9,440.6c-0.2-0.1-0.2-0.1-0.3-0.2C53.4,440.4,53.4,440.5,53.9,440.6z"></path>
		<path fill="#FFFFFF" d="M93.5,432.6l0.1,0c0.1,0,0.1,0,0.1-0.1L93.5,432.6z"></path>
		<path fill="#FFFFFF" d="M129.1,446.2c0.6,0,1,0,1.2,0.1C130.4,446.2,130.1,446.2,129.1,446.2z"></path>
		<path fill="#FFFFFF" d="M64.2,452.2l2-0.1c-1,0-1.3,0-1.8,0C64.5,452.1,64.9,452.1,64.2,452.2z"></path>
		<path fill="#FFFFFF" d="M55.2,452.4c0.3,0,0.6,0.1,0.9,0.1l-0.1-0.2C54.8,452.2,54,452.2,55.2,452.4z"></path>
		<path fill="#FFFFFF" d="M62.4,451.2c-0.2-0.3-1.4-0.1-2.8,0c0.1,0,0.2,0,0.2,0C59.4,451.5,60.9,451.4,62.4,451.2z"></path>
		<path fill="#FFFFFF" d="M59.2,451.2c-0.4,0-0.9,0-1.3,0C57.8,451.4,58.4,451.2,59.2,451.2z"></path>
		<path fill="#FFFFFF" d="M76.9,451.4c-0.7,0-0.4,0.3-0.8,0.3C75.3,452,80.5,451.1,76.9,451.4z"></path>
		<polygon fill="#FFFFFF" points="61.2,450.4 61.7,450.7 62.5,450.4   "></polygon>
		<path fill="#FFFFFF" d="M72.3,450.3l-2.2,0c0,0.1-0.2,0.1-0.6,0.1C70.8,450.3,72.3,450.4,72.3,450.3z"></path>
		<path fill="#FFFFFF" d="M69.4,450.4c-0.7,0-1.4,0-1.8,0.1C68,450.5,68.9,450.4,69.4,450.4z"></path>
		<polygon fill="#FFFFFF" points="64.3,450.2 64.9,450.2 66.5,450.2   "></polygon>
		<path fill="#FFFFFF" d="M96.4,449.4l2.4-0.2c0.2-0.1-0.4-0.2-1.3-0.1C96.9,449.2,96,449.3,96.4,449.4z"></path>
		<path fill="#FFFFFF" d="M89,448.8c0.7,0,0.7,0.1,1.1,0.2l0.1-0.4L89,448.8z"></path>
		<path fill="#FFFFFF" d="M96.1,448.5c0.2-0.1,3.5-0.5,0.4-0.3C96.3,448.3,93.8,448.5,96.1,448.5z"></path>
		<polygon fill="#FFFFFF" points="133,447.1 132.3,447.2 132.5,447.8   "></polygon>
		<path fill="#FFFFFF" d="M125.6,446c2.9,0.5,0.7-0.3,3.3,0.1c0.7-0.1-2.1-0.4-1.4-0.4C125.7,445.7,124.8,445.5,125.6,446z"></path>
		<path fill="#FFFFFF" d="M127.5,445.7c0.3,0,0.6,0,0.9,0C127.9,445.7,127.7,445.7,127.5,445.7z"></path>
		<polygon fill="#FFFFFF" points="15.4,428.1 13.5,428 14.7,428.2   "></polygon>
		<path fill="#FFFFFF" d="M11.8,428.6l-0.4-0.4l-1.1,0.4C10.7,428.6,11.5,428.5,11.8,428.6z"></path>
		<path fill="#FFFFFF" d="M31.6,433.4l-0.1,0.1c0.3,0.1,0.7,0.1,1.6,0L31.6,433.4z"></path>
		<polygon fill="#FFFFFF" points="57,432.8 56.6,432.8 57.4,433.2   "></polygon>
		<path fill="#FFFFFF" d="M78.3,432.1c-0.9,0-1.9,0.1-2.8,0.1C77.4,432.1,78.5,432.6,78.3,432.1z"></path>
	</g>
	<g>
		<path fill="#FFFFFF" d="M411.3,456.6c-0.8,0.2-0.4,0.4-0.5,0.4C412.1,456.6,411.3,456.5,411.3,456.6z"></path>
		<polygon fill="#FFFFFF" points="423.2,452 423.4,451.9 421.4,452.1   "></polygon>
		<path fill="#FFFFFF" d="M410.4,451.1c1.2,0.5,4.6,0.3,6.9,0.6l0.4,0.1l1.1-0.3C415.9,451.4,412.3,451.4,410.4,451.1z"></path>
		<path fill="#FFFFFF" d="M403.6,449.6c0.4,0.2-1.5,0,1.6,0.2c-0.2,0-0.2,0-0.3-0.1C404.7,449.7,404.3,449.6,403.6,449.6z"></path>
		<path fill="#FFFFFF" d="M404.9,449.7C406.3,449.8,404.1,449.5,404.9,449.7L404.9,449.7z"></path>
		<path fill="#FFFFFF" d="M398.7,449.4l1.8,0c-0.4-0.1-1.9-0.3-1.3-0.3C397.3,449,397.7,449.1,398.7,449.4z"></path>
		<path fill="#FFFFFF" d="M397,449.6l0.9,0C397.8,449.5,397.5,449.5,397,449.6z"></path>
		<path fill="#FFFFFF" d="M399.9,449.6l-2,0c0.3,0.1,0.3,0.2,0.9,0C398.7,449.7,399.1,449.6,399.9,449.6z"></path>
		<path fill="#FFFFFF" d="M401,449.7c1,0.2,2.3,0.3,0.5,0.4C404.9,450.3,404.4,449.9,401,449.7z"></path>
		<path fill="#FFFFFF" d="M409.7,451.5l1.3,0.2l1.2-0.1C411.6,451.7,409.6,451.4,409.7,451.5z"></path>
		<path fill="#FFFFFF" d="M387.8,448.3c-0.1,0.1,0.5,0.3,0.6,0.5c0.4,0,0.8,0,1.3,0C389.1,448.6,387.9,448.4,387.8,448.3z"></path>
		<path fill="#FFFFFF" d="M388.5,448.7c-0.6,0-1.2,0-1.8-0.1c0.7,0.2,1.3,0.2,1.5,0.2C388.4,448.8,388.5,448.8,388.5,448.7z"></path>
		<polygon fill="#FFFFFF" points="396.7,450.1 399.9,449.9 396,450   "></polygon>
		<polygon fill="#FFFFFF" points="388.3,451.1 387.2,451.3 389.1,450.9   "></polygon>
		<path fill="#FFFFFF" d="M393.2,451c-0.8,0.2,1.1,0.3,0.3,0.4c1.4-0.1,2.5-0.2,3.5-0.4C395.9,451.1,394.8,451.1,393.2,451z"></path>
		<path fill="#FFFFFF" d="M398.8,450.8c-0.6,0.1-1.1,0.1-1.7,0.2C397.6,450.9,398.2,450.9,398.8,450.8z"></path>
		<path fill="#FFFFFF" d="M385.3,450.6c0.2,0.1,0.4,0.2,1.6,0.3l-0.8-0.3C385.9,450.6,385.6,450.6,385.3,450.6z"></path>
		<path fill="#FFFFFF" d="M386.1,450.6L386.1,450.6c0.9,0,1.4,0,1.7,0C387.6,450.6,387.1,450.6,386.1,450.6z"></path>
		<path fill="#FFFFFF" d="M385.1,450.6c0.1,0,0.1,0,0.2,0C385.3,450.6,385.2,450.6,385.1,450.6z"></path>
		<path fill="#FFFFFF" d="M391.5,449.4c-1.2,0.1-3.6,0.1-1.3,0.5C391.1,449.8,389.8,449.5,391.5,449.4z"></path>
		<path fill="#FFFFFF" d="M384.9,448.9c0.1,0,0.1-0.1,0.2-0.1c0,0,0,0,0.1-0.1c0,0,0.1-0.1,0.1-0.1c0,0,0.1-0.1,0.1-0.1l0,0    c0,0,0,0,0,0c0,0,0,0,0.1,0.1c0,0,0.1,0.1,0.1,0.1c0.2,0.1,0.5,0.2,0.8,0.3c0-0.1-0.3-0.3,0.2-0.2c-0.3,0-0.6-0.1-0.9-0.2    c-0.1,0-0.2-0.1-0.3-0.1l0,0c0,0,0,0-0.1,0.1C385.1,448.8,385.1,448.9,384.9,448.9z"></path>
		<path fill="#FFFFFF" d="M385.2,450.2l-0.8,0.1l0.5-1.3c0,0,0.1,0,0.1,0c0,0,0,0-0.1,0l-0.5,1.3l0.6,0L385.2,450.2z"></path>
		<path fill="#FFFFFF" d="M395.2,450.6c0.9-0.1,1.9-0.2,3-0.2c-1.2,0-2.4,0-3.6,0C394.4,450.4,393.9,450.6,395.2,450.6z"></path>
		<path fill="#FFFFFF" d="M390.8,450.5c0.1,0,0.1,0,0.2,0C390.9,450.5,390.8,450.5,390.8,450.5z"></path>
		<path fill="#FFFFFF" d="M409.2,450.2c-0.1,0-0.1,0-0.2,0c0,0,0,0,0,0L409.2,450.2z"></path>
		<path fill="#FFFFFF" d="M394.4,450.3c-0.9,0-1.4,0-1.9,0.1c0.7,0,1.4-0.1,2.1-0.1C394.7,450.3,394.7,450.3,394.4,450.3z"></path>
		<path fill="#FFFFFF" d="M401.8,450.6c-0.5-0.1-1-0.1-1.6-0.1C400.8,450.5,401.7,450.7,401.8,450.6z"></path>
		<path fill="#FFFFFF" d="M391.3,450.6c0,0-0.1,0-0.1,0C391.4,450.7,391.4,450.6,391.3,450.6z"></path>
		<path fill="#FFFFFF" d="M391.3,450.6c0.5,0,0.8-0.1,1.2-0.2c-0.5,0-1.1,0.1-1.5,0.1C391.1,450.5,391.2,450.6,391.3,450.6z"></path>
		<path fill="#FFFFFF" d="M412.5,448.4c-0.2,0.3-2.5,0.5-4.5,0.3c-2,0.2-0.7,1,1.1,1.5c0.1-0.1,0.1-0.2,2.1-0.4    c-0.7-0.1-4.6-0.3-2.8-0.5c2.7-0.2,2.2,0.1,3.6,0.2c-1.1-0.3,3.5-0.5,2.9-1l-2.4,0.2C412.3,448.6,413.1,448.4,412.5,448.4z"></path>
		<path fill="#FFFFFF" d="M405.1,450.2l-0.8,0c1,0,1.7,0.1,2.9,0.3c1.4-0.1,1.7-0.2,1.8-0.3l-4.2,0L405.1,450.2z"></path>
		<path fill="#FFFFFF" d="M400.4,450.3c0.7-0.3,2.7-0.4,1.4-0.7c-2.5,0.1-1.7,0.3-3.2,0.4C402.6,449.8,397.5,450.1,400.4,450.3    c-0.8,0-1.5,0.1-2.2,0.1c0.7,0,1.4,0.1,2.1,0.1c0,0-0.1,0-0.1,0l0,0l0,0c-0.2,0-0.2-0.1,0,0c0,0,0.1,0,0.1,0    C400.3,450.4,400.3,450.3,400.4,450.3c1.2,0,0.2,0.1-0.2,0.1c0,0,0,0,0,0l0,0l4-0.2C403.4,450.2,402.3,450.2,400.4,450.3z"></path>
		<path fill="#FFFFFF" d="M388.1,450.3c-0.1,0-0.1-0.1-0.1-0.1C387.7,450.2,387.6,450.2,388.1,450.3z"></path>
		<path fill="#FFFFFF" d="M386.5,449.9c0.3,0,0.5,0,1.5,0.1c0.8,0.2,0,0.1,0,0.2c0.6,0,2,0,0.2-0.3l-0.3,0c-0.8-0.1-1.7-0.4-2.2-0.7    c-0.3-0.1-0.5-0.3-0.5-0.4c-0.1-0.1,0-0.1,0-0.1c0,0.1,0.1,0.3,0.3,0.5C385.7,449.5,386,449.7,386.5,449.9z"></path>
		<path fill="#FFFFFF" d="M391.2,449.7l3.3-0.2l-1.7-0.2l0.1,0.1C391.1,449.5,391.5,449.6,391.2,449.7z"></path>
		<polygon fill="#FFFFFF" points="409.6,450.3 409.1,450.6 411.1,450.2   "></polygon>
		<polygon fill="#FFFFFF" points="413.9,450.2 413.8,450.5 414.9,450.3   "></polygon>
		<path fill="#FFFFFF" d="M387.7,434.9l1-0.1C388.2,434.8,387.9,434.9,387.7,434.9z"></path>
		<path fill="#FFFFFF" d="M380.5,435l-0.2,0.1C380.7,435,380.8,435,380.5,435z"></path>
		<path fill="#FFFFFF" d="M449.9,441.5c-1.4-0.3-3-0.8-2.9-0.5l0.4,0.3C448.4,441.3,449.2,441.4,449.9,441.5z"></path>
		<path fill="#FFFFFF" d="M376.6,441.1c0.1,0,0.3,0.1,0.4,0.1c0.4-0.1,0.7-0.2,1-0.2C377.5,441,377.1,441.1,376.6,441.1z"></path>
		<path fill="#FFFFFF" d="M375.5,442.2l-1.9-0.3C374,442,374.6,442.1,375.5,442.2z"></path>
		<path fill="#FFFFFF" d="M426.6,434.4l1.1-0.3C426,434.1,426.8,434.3,426.6,434.4z"></path>
		<path fill="#FFFFFF" d="M463.6,449.4c2.4,0.1,4.3,0.1,5.8,0.1C466.1,449.4,463.5,449.2,463.6,449.4z"></path>
		<path fill="#FFFFFF" d="M384.9,437.9c0.6-0.1,0.9-0.1,0.8-0.2C385.1,437.8,384.8,437.8,384.9,437.9z"></path>
		<path fill="#FFFFFF" d="M475.1,449.3c-0.4,0-0.8,0-1.3,0c-1,0.1-2.4,0.1-4.4,0.2C471.8,449.6,474.6,449.6,475.1,449.3z"></path>
		<path fill="#FFFFFF" d="M391.9,432.8c-0.1,0-0.2,0-0.3,0C391.6,432.8,391.7,432.8,391.9,432.8z"></path>
		<path fill="#FFFFFF" d="M350.7,431.3c0.4,0,1.1-0.1,1.7-0.1C352.1,431.2,351.6,431.2,350.7,431.3z"></path>
		<path fill="#FFFFFF" d="M431.4,450.1C430.5,450.1,431.3,450.1,431.4,450.1L431.4,450.1z"></path>
		<path fill="#FFFFFF" d="M426.9,449.1c0.2,0,0.3-0.1,0.4-0.1C427.2,449,427.1,449,426.9,449.1z"></path>
		<path fill="#FFFFFF" d="M474,447.7C474,447.7,474,447.7,474,447.7C473.2,447.6,473.4,447.6,474,447.7z"></path>
		<path fill="#FFFFFF" d="M430.1,450c0.3,0,0.7,0.1,1.2,0.1C431,450,430.7,450,430.1,450z"></path>
		<path fill="#FFFFFF" d="M430.2,450.1c-0.3,0-0.6,0-0.8,0C429.3,450.2,429.4,450.2,430.2,450.1z"></path>
		<path fill="#FFFFFF" d="M432.7,450.1c-0.5,0-1,0-1.5,0c0.2,0,0.3,0,0.2,0C431.7,450.1,432.1,450.1,432.7,450.1z"></path>
		<path fill="#FFFFFF" d="M467.6,432.6c-0.1,0-0.1,0-0.2,0C466.4,432.7,466.8,432.7,467.6,432.6z"></path>
		<path fill="#FFFFFF" d="M425.7,443.6c0,0,0.1,0,0.1,0C425.8,443.5,425.7,443.5,425.7,443.6L425.7,443.6z"></path>
		<path fill="#FFFFFF" d="M422.4,443.7c1.4-0.3,2.2-0.3,3.3-0.2l-1.1-0.8L422.4,443.7z"></path>
		<path fill="#FFFFFF" d="M404.8,434.7l-2.3-0.2c2.8-0.4,4.8-0.3,2.7-0.6c-0.3,0.9-9.1,0.1-9.4,1l-1.5-0.2c0.4,0,0.5,0,0.9,0    c-3-0.4-2.2,0.7-6.1,0.6c-1.3-0.1-2.3-0.2-1.4-0.3l-3,0.3c-0.9,0-0.7-0.2,0.2-0.2l-4.6,0.1l0,0c-0.6,0.2-2.1,0.4-2.8,0.5    c-1.2-0.1,0.6-0.1,0.3-0.2l-2.5,0.3c-1-0.2,1.1-0.5,2.8-0.5c-2.4-0.8-2.1,0.2-7.2-0.1l2.4-0.2c-1.6-0.4-3.4-0.2-6.1-0.4    c0.7,0.1,5.4,0.6,2.7,0.9c-0.8,0-1.8,0-3.3,0.2c0-0.3-1.5-0.2-3.3-0.1l0.1-0.4c-2,0.2-1.8,0.4-2.9,0.7c-2.2,0.1-2.7-0.2-3.2-0.4    c-3.5,0.2,2.4,0.3-1.7,0.7c-2.2,0.1-3.8,0.2-6,0.6l-0.6,0.1l-0.3,0.4c-0.1,0.1-0.2,0.3-0.3,0.5c-0.1,0.2-0.2,0.5-0.1,0.8    c0,0.1,0,0.3,0.1,0.4c0,0.1,0.1,0.3,0.2,0.3c0.1,0.1,0.1,0.2,0.2,0.2c0.1,0.1,0.1,0.1,0.2,0.2c0.1,0.1,0.2,0.2,0.3,0.2l0.2,0.1    c0.2,0.1,0.3,0.1,0.4,0.2c0.5,0.2,1,0.3,1.5,0.3c2.2,0.5-0.4,0.2,0.3,0.4c0.7,0,1.4,0,1.9-0.1c0.4,0,0.3,0.1,0.2,0.2    c1.5,0,0.2-0.4,2.6-0.3c0.7-0.4,4.8,1.1,7.8,0.8c0.7,0.2-0.4,0.2-0.2,0.4c4.1-0.1,3.5,0,6.8-0.3l2.8,0.4c-2.1-0.4,0.6-0.6,2.9-0.8    c-0.7-0.2-1.4-0.3-1.8-0.4c1.2,0,2.5,0,3.7,0c0.4,0.1,0.1,0.2-0.5,0.4c0.3,0,0.5-0.1,0.7-0.1c1.3,0.2,0.6,0.4-0.3,0.6    c-0.4-0.1-0.9-0.2-1.3-0.3c-0.9,0.2-1.8,0.4-1.6,0.7c0.2,0,0.7-0.1,1.2-0.1c-0.2,0.1-0.4,0.1-0.3,0.2c0.1,0,0.5,0,1.1-0.1l0.8,0.5    l0.2-0.2l4.9,0.5c3.5-0.3,6.5-0.9,12.1-1c-1.4,0.3-0.3,0.5-0.4,0.9c-1.5-0.5-4.3,0.1-7.1-0.1c1.5,0.1,1.2,0.3,0.8,0.3l5.1-0.2    c-0.1,0.3,1.1,0.3,2.4,0.4c-1-0.7,3.8-0.3,5.9-0.5c0.1,0.2-0.4,0.4-2.9,0.3c2.8,0.5,3.6-0.7,6.4-0.2c-0.6,0-1,0-1.2,0.1    c1.4-0.2,5,0.1,4.1,0.2l-0.6,0c4.1,0.2,12.5,0.2,13.1-0.3c0,0.1-0.6,0.7-0.8,0.8l7.4-1.7c-0.7,0.5,1.8,1.6-1.6,1.8    c1,0.1,2.2,0.2,4.2,0.1c-0.7-0.1-1.6-0.7-0.7-0.7c2.5,0.6,1.7,0.3,4.8,0.9c-1-0.1,0.1-0.8,1.7-0.8c-0.2,0.1,0.1,0.7-0.5,0.8    l3.9-0.6c-1,0.1-0.2,0.6,0.7,0.8c-0.4-0.2,3.4,0.1,4.4,0.1l-1.7-0.2c2.2,0.1,3.3-0.1,4.4-0.3c0.6-0.1,1.1-0.2,1.8-0.3    c0.3,0,0.7-0.1,1.2-0.1c0.4,0,0.9,0,1.4,0c-0.3,0.1-0.7,0.3-0.7,0.5c-0.1,0.2,0.1,0.4,0.6,0.5c0.4-0.2,1.6-0.5,4-0.8    c1.2-0.1,2.6-0.3,4.2-0.3c1.6-0.1,3.3-0.1,4.9,0c0.1,0.1,0,0.1,0,0.2l4.6,0.2c-1.1,0-2.7,0-4.5,0.1c-1.7,0-3.5,0.1-5.3,0.2    c-1.7,0.1-3.2,0.2-4.3,0.3c-1.2,0.1-2,0.2-2.5,0.3c0.3,0.1,0.1,0.2,0.1,0.2c0,0,0.1,0.1,0.6,0.1c-0.1,0.1-0.5,0.1-0.8,0.2    c-0.3,0-0.6,0-0.7,0c0.4,0.1,0.8,0.1,1,0.2c0.9-0.2,1.8-0.2,2.8-0.2c1,0,2.1,0,3.1-0.1c-2.1,0-3.8,0-5.1,0.1    c0.7-0.2,2.2-0.4,4.3-0.5c1,0,2.2-0.1,3.4-0.1c1.1,0,2.2,0.1,3,0.1c-0.2,0.1-1.7,0.2-3.2,0.3c-1.5,0.1-2.9,0.2-3.4,0.2    c0.6,0,1.6,0,2.4,0c0.8,0,1.4,0.1,1.1,0.1c-0.9,0-1.8,0-2.7,0c-0.1,0.1,1.4,0.1,2.9,0.1c0.7,0,1.5,0,1.9,0.1    c0.4,0,0.4,0.1-0.3,0.1c0.1,0-1,0.1-1.9,0.1c-0.9,0-1.5,0.1,0,0.1c5.4-0.1,9.4-0.2,12.9-0.2c2,0,3.9-0.1,5.6-0.1    c1.4,0,2.7,0,3.3,0c0,0-0.1,0.2,0.1,0.4c0.2,0.2,0.8,0.4,0.9,0.5c0,0,0,0-0.1,0c-0.8,0-1.2,0-2.2,0c-1.1,0-3.1-0.1-5.1-0.1    c-3.5-0.1-6.6-0.2-8.4-0.1c1.6,0,4,0.1,4.9,0.2c-0.4,0-1.7,0-2.6,0c-0.5,0-0.9,0-1,0c-0.1,0-0.1,0,0,0c0,0,0.1,0,0.2,0    c0,0,0.1,0,0,0l0,0c0,0,0,0,0,0.1c3,0.1,2.2,0.4,1.6,0.5c-0.3,0-0.5,0.1-0.2,0.1c0.3,0,1.2,0,3.1-0.1c0.1,0.3-0.6,0.3-1.5,0.3    c-0.9,0-1.9,0.1-2.6,0.1c1.9,0.1,4.5,0.3,6.1,0.5c0.4,0.1,0.8,0.1,1.1,0.2l0.2,0c0.1,0,0,0,0,0l0,0l-0.2,0c-0.2,0-0.5,0.1-0.8,0.1    c-0.2,0-0.6,0-0.9-0.1c-0.4,0-0.9-0.1-1.3-0.1c-2.3,0-4.5,0-6.4,0c-1.9,0-3.7-0.1-5.5,0c-0.3,0-1.3-0.1-2-0.2    c-0.7-0.1-1.3-0.1-1.4-0.2c0,0.1,0.2,0.2-0.8,0.2c-0.9-0.1-1.1-0.1-1.1-0.2c0,0,0.2,0,0.4-0.1c0.2,0,0.5,0,0.4-0.1    c0,0-0.4-0.1-1.1-0.2c0.5,0.1,0.3,0.2-0.1,0.3c-0.5,0.1-1.2,0.2-1.7,0.2c0.7,0.2,1.7,0.2,2.5,0.1c0.9-0.1,1.5-0.2,1.8-0.3    c1.3,0.3,1.9,0.5,1.4,0.8c-0.5,0.2-2.2,0.5-4.8,0.6c-2.1,0.1-2.7,0-2.8-0.1c-0.1-0.1,0.2-0.2-0.1-0.2c-1,0-1.8,0-2.5,0    c-0.6,0-1.1,0.1-1.5,0.1c-0.9,0.1-1.5,0.2-2.1,0.3c-1.2,0.2-2.3,0.4-4.9,0.2c-2.1-0.3-0.1-0.7-0.6-0.9c2.7-0.2,4.2,0.2,6.1,0.1    l-2.3-0.1c0.9-0.1,2.7-0.2,3.7-0.2c-1.7-0.3-10.6,0.1-15.5-0.1c-0.9,0.1-2.4,0.3-1.6,0.4l1.5-0.1c1.4,0.3-2.9,0.4-0.9,0.5    c-2.1,0.2-4.4,0.6-7.3,0.5l-0.6-0.4c0.1,0.1,1.9,0.2,2.7,0.1c-1.2,0.2-4.5-0.5-5.8,0.1l2,0.2c-2.1,0.2-4.6,0.7-7.2,0.6    c1.2,0.4,0.6-0.1,2.4,0.4c-1.6-0.5,6.6-0.1,4-0.6c1.9,0.5,3.3,0.2,5.7,0.6c-0.1-0.1-0.9-0.2,1.3-0.2c0.1,0,0.3-0.1,0.5-0.1    c0.1,0,0.1,0,0.1,0c0,0-0.1,0-0.1,0c0.1,0,0.1,0,0,0c-0.5-0.1-0.9-0.1-1.1-0.2c1.1-0.3,4.5-0.4,5.7-0.5c1.3,0-0.5,0.2,0.2,0.3    l1.7-0.3c0.2,0.3,3.4,0.4,0.4,0.6l2.7,0c1.6,0.1,3.8,0.2,5.2,0c1.3,0,3.2-0.4,2.1-0.1l2.1-0.1l1.1-0.1l1.6-0.1l0.1,0.1    c1.7,0,3.5-0.1,5.2-0.1c1.6-0.1,3.3-0.1,5-0.2c1.7-0.1,3.4-0.1,5.3-0.1c1,0,2,0,3.1,0c1.2,0,2.4,0,3.6,0.1    c1.6-0.2,2.6-0.4,4.9-0.5l1.7,0.1c0.4-0.1,1.5-0.2,2.3-0.4c0.8-0.1,1.2-0.2,0.9-0.3c0.9,0,1.5,0,2.1-0.2c0.5-0.1,1-0.3,1.5-0.5    c0.3-0.1,0.6-0.3,1-0.5c0.2-0.1,0.4-0.2,0.7-0.3l0.4-0.2l0.2-0.1c0,0,0,0,0,0c0.1-0.2,0.1-0.3,0.3-0.5l-1.2,0    c0-0.2-0.2-0.3-0.5-0.5c-0.1,0-0.2-0.1-0.3-0.1l-0.2-0.1c0,0-0.1,0-0.2,0l-0.3,0c-0.9-0.1-1.8-0.2-2.7-0.3l-1.6,0.1    c-2-0.2-3.3-0.4-4.7-0.6c-0.3-0.1-0.7-0.1-1.1-0.2c-0.2,0-0.4-0.1-0.6-0.1c-0.2,0-0.5-0.1-0.7-0.1c-1-0.1-2.1-0.3-3.3-0.4    c0.9,0,2,0.1,2.5,0.2c-0.6-0.2-1.9-0.4-3.5-0.6c-0.8-0.1-1.6-0.2-2.5-0.2l-1.3-0.1c-0.5,0-1,0-1.5-0.1c-2-0.1-3.9-0.1-5.6-0.2    c-1.7-0.1-3.1-0.2-4.5-0.4c-1.6,0-2.7-0.1-3.7-0.2c0.1,0,0.3,0,0.4,0c-0.2,0-0.4,0-0.7,0c-0.6-0.1-1.6-0.2-1.9-0.2    c0.1,0,0.2,0,0.3,0.1l0.2,0l0.2,0c0.3,0,0.6,0.1,0.9,0.1c-0.3,0-0.7,0-1,0c-0.2,0-0.5,0-0.8,0c-0.5,0-1.1,0-1.7,0l-0.5-0.3    c-0.1,0-0.2,0-0.3,0c-1.1-0.2-0.9,0.1-0.3,0.4c-0.6,0-1.1,0.1-1.5,0.1c-0.9-0.5-3,0.1-4.3-0.5c-0.8,0.2-5.8,0-6.4,0.5    c0-0.1-0.4-0.1,0.2-0.1c-1.3-0.1-2.6-0.2-3.7-0.1l-0.5-0.4l-2.8,0.5c-1.7-0.3-2.4-0.4-0.7-0.7c-4.1,0.4-3.3,0.1-6.8,0.5l0.2-0.3    c-1.2,0-3.2,0.3-4,0.1c-2.8-0.5-13.8-0.3-20.9-0.9c1.4,0.8-3.3-0.4-3.6,0.2c-0.4-0.2-1.4-0.3-0.2-0.4c-3.6,0.1-5.5-0.4-8,0    c-0.4-0.2,0.8-0.2,0.4-0.4c-0.3,0-1.2,0.1-1.5,0c-0.4-0.1,0.5-0.1,1.1-0.2c-3.7-0.1-4.1,0.4-4.4,0.9c-1.9-0.3-2.8-0.3-4.2-0.1    c-0.6-0.2-1.7-0.4,0.6-0.4c-1.3-0.1-7.9-0.6-8.1-0.3c-0.4-0.1-1.8-0.1-2.2-0.1c-2.9-0.2-3.2-0.2-6-0.4l0.8,0.1    c-1.2,0.4-2.4-0.1-4.7-0.2l0.1,0c-1.2-0.2-2-0.3-2.5-0.3c-0.5-0.1-0.8-0.1-1.1-0.1c-0.3,0-0.5,0-0.8-0.1c-0.2,0-0.4-0.1-0.6-0.2    c-0.1,0-0.2-0.1-0.3-0.2c0,0,0,0,0,0l-0.1,0.1c0,0,0,0,0,0.1c-0.1,0.1-0.2,0.1-0.2,0.1c0,0-0.1,0,0,0c0,0,0,0,0.1,0    c0,0,0.1,0,0.1,0.1c0.1,0,0.1,0.1,0.1,0.1l-0.4,0.4c0.2,0,0.6,0,1,0l-0.3-0.3c0.4-0.7,4.6,0,7.6-0.4c-0.4,0-0.7-0.1-1.1-0.1    c1.6-0.3,4.7,0.6,6.3,0.6c0.4,0-0.6,0.1-1.1,0.2c4.4,0.1,0.5-0.5,3.8-0.7c0.6,0.2-0.7,0.6,1.4,0.5c1.1,0.1,6.3-1,9.3-0.6    c-0.7-0.2-1.3-0.3,0.2-0.5c1.2-0.1,2.7,0.1,4.3,0.1c1.5,0.1,3,0.1,4.1-0.2c0.3,0,0.4,0.1,0.4,0.1c1.8-0.2,5.7-0.3,6.8-0.6    c1.6,1,11-0.6,10.9,0.4l5.4-0.1l-0.1,0.1c3.5,0.1,4.7-0.2,5.9-0.4c0.8,0.1,0.2,0.2,0.2,0.2c5.1,0.2,5.6,0.1,9.8-0.4l0.4,0.3    c1.2-0.2,7.4,0.4,12.3-0.1c0,0-0.2,0.1-0.5,0.2c5.6-0.5,13.5,0.5,15.5-0.8l3.7-0.5c-4.8,0.2,0.7-0.5-1.3-0.6    c1.9-0.2,4.9,0.1,2.6,0.3l-0.4,0c-0.4,0.3,1.1,0.3,2.7,0.2c1.6-0.1,3.2-0.2,3.2,0c1.5-0.1,2.9-0.2,4.4-0.3    c1.5-0.1,2.9-0.3,4.3-0.4c0.7-0.1,1.4-0.1,2.2-0.2c0.7-0.1,1.4-0.1,2.2-0.2c0.7-0.1,1.5-0.2,2.2-0.4c0.4-0.1,0.8-0.2,1.2-0.4    c0.2-0.1,0.4-0.2,0.7-0.4c0.2-0.2,0.5-0.5,0.7-0.9l0.8-1.6l-1.9-0.1c-3.4-0.2-6.8-0.4-10.1-0.5l1,0.5l-3.1-0.1    c-0.8-0.1-1.1-0.4,1.1-0.3c-1.1-0.3-3.7,0.1-3.8,0.2c-4.3-0.3,1.7-0.5,0.4-0.5l-1.8,0l0.4,0.1c-1.5,0.1-1.6,0.3-4.2,0.3    c-1.7-0.1-0.8-0.3-1.5-0.3c0,0-0.2-0.1-1,0l-3.9-0.1l1.5,0.4c-1.7,0.1-3.6-0.1-1.9,0.4c-1.3-0.4-4.9-0.5-8.4-0.5    c-3.5,0-6.9,0-7.7-0.2c-2.4,0.2-4.8,0.2-7.7,0.2c0.7,0.1,1.2,0.5-1.4,0.4c0.9-0.9-4.6-0.4-6.7-1c1.8,0.4-7.2,0.1-4.3,0.7    c-2.1-0.1-0.1-0.3-1.7-0.5c-5,0.3-11.1-0.2-17.4,0c-0.1,0.1,1,0.3-0.4,0.5l-3.3-0.5c-1.2,0.1-1.1,0.7-3.4,0.3    c0.3,0.1,0.8,0.2,0,0.3c-12.2-0.3-24.9,1.1-37.4,0.6c1.7,0.1,0.6,0.2-0.7,0.3c0.8,0,0,0.3,0.2,0.4l-5.2-0.2    c-0.9,0.5-5.6,0.3-6.1,0.7l1.6-0.2c-2.2,0.6,3.1,0.9,2.8,1.6c2.4-0.7,6.5,0.5,10.5-0.4c0.9,0.1-0.7,0.2-0.3,0.4    c1-0.3,2.2-0.4,4.5-0.4l-0.3,0.1c6.4-0.3,9.1-0.1,16.3-0.2l-0.5-0.3c1.5,0,1.9,0.1,2.6,0.1c1.8-0.5-4.3,0.1-2.7-0.5    c1,0.3,3.8,0.2,6.4,0.2c2.6,0,5.2-0.1,5.9,0.3c2.4,0-0.7-0.3,1.7-0.4l0.6,0.2l0.6-0.3c1.6,0,2.3,0.2,2.4,0.4    c-0.4,0-1.1,0.1-1.5,0.1c2,0.2,5.7-0.2,6.4-0.1l-2.3-0.1c6.5-0.3,14.4-0.1,20.6-0.5l-0.5-0.1c4.8-0.3,3.8,0.2,9.1,0l-0.2,0    c1.1-0.1,2.5-0.2,3.9-0.2c-1.3,0.2,2.5,0.3,0.8,0.5c5.2-0.2,2.6-0.2,6-0.7l0.8,0.3c1.2-0.2,1.3-0.3,3.9-0.3    c-2.2,0.2,1.7,0.4-0.7,0.6c5.5,0.6,8.2-0.4,10.7,0.4c2.5-0.6-4.8-0.5-3.3-0.6c-1.2-0.2,2.1-0.5,3.8-0.4c1.8,0,3,0.9,7.4,1    c-0.4,0-0.5,0-0.9,0c1.6,0.2,3.2-0.2,5.3,0.2c1.1-0.4,2.6,0.1,3-0.4l-4.1,0c2.3-0.1,4.5-0.6,8.3-0.2c-0.3,0.1-1.4,0.2-2.2,0.2    c1.1,0.2,2.1,0,3.3,0.2c-0.3,0.5-4.9,0-7.4,0.3c1.2,0.3,4.7-0.2,3.4,0.3c1.8-0.6,4.3,0.2,7.4-0.2l-0.2,0.3c0.5,0,1.5-0.1,2.3-0.1    l-1.6,0.3c1.7-0.2,3.3,0.1,4.9,0.3l-0.6-2c-0.1,0-0.1,0-0.2-0.1c0,0,0,0-0.1-0.1c0,0-0.1-0.1-0.1-0.1c-0.1-0.1-0.1-0.1-0.2-0.2    c-0.1-0.1-0.2-0.2-0.3-0.3c-0.1-0.1,0,0,0,0l0,0c0,0-0.1,0-0.1,0c-0.2,0.1-0.4,0.2-0.7,0.3c0.4-0.1,0.7-0.2,0.8-0.3c0,0,0,0,0,0    c0.1,0.2,0.3,0.3,0.4,0.4c0.2,0.2,0.3,0.3,0.4,0.3l0.6,2c-1.3-0.2,0.6-0.4-1-0.6c0.4,0,0.7,0,1,0l-0.6-1.4c-0.1,0-0.1-0.1-0.2-0.2    l-0.1-0.1c0,0,0,0,0,0c0,0,0,0,0,0c0,0,0,0,0,0l-0.1,0.1c-0.1,0.1-0.3,0.1-0.4,0.2c-0.3,0.1-0.6,0.2-0.9,0.2c-0.5,0.1-0.9,0-1.4,0    c-0.9-0.1-2-0.2-5.1,0.2c0.9-0.1,3.4-0.2,2,0.1c-1.3,0.1-3,0.1-3.8,0c-4.4,0.5,0.7,0.2-1.2,0.6c-1.5-0.2-2.2,0.3-4.1,0.6l0-0.3    c-5.1,0.2-1.3,0.8-5.9,0.8c0.6-0.2,1.3-0.4,1.9-0.5c-0.8,0.1-1.6,0.2-2.4,0.3l0.5-0.4c-2.6,0.4-3.4,0.4-5.9,0.4    c0.6,0.2-0.3,0.6-2.5,0.7c-1.5-0.1,0.8-0.3-2.3-0.2c0.7-0.2,1.5-0.5,2.9-0.3c0.1-0.1,0.7-0.2,0.8-0.3c-1.7-0.1-4.1,0.1-5.3,0.2    c0.4,0,1,0,1.2,0c-1.5,0.2-3.1,0.4-4.6,0.6c-0.7-0.1-0.2-0.2,0.4-0.3c-0.9,0.1-1.6,0.2-2.9,0.3c0.3-0.3,0.3-0.5,2.2-0.7l-4.4,0.4    c-0.3-0.1-2.3-0.2-1.7-0.4c-2.4-0.1-6,0.6-9.2,0.4c-0.2,0.1-0.5,0.1-1.2,0.1c-3,0-5.7-0.3-9.3,0l-2-0.4c-2.8,0.1,2.8,0.6-1.9,0.7    c-3.3,0.1-1.2-0.4-2.4-0.5c-1.7,0.2-4.5,0.7-7.6,0.3C403,434.7,403.8,434.8,404.8,434.7z M369.9,435.5c0.7-0.1,2-0.3,2.5-0.2    C371.7,435.7,371.1,435.5,369.9,435.5z M381.7,441.9c-0.5,0.1-1.3,0-2.2-0.1C380.1,441.8,380.9,441.8,381.7,441.9z M441.6,449.7    C441.6,449.7,441.6,449.7,441.6,449.7C443.1,449.8,442.6,449.7,441.6,449.7z M438.4,449.6c-0.3,0-0.3,0.1-0.2,0.1    c0.2-0.1,0.9-0.1,1.7-0.1C439.8,449.6,439.4,449.5,438.4,449.6z M457.7,430.2l0.6,0.1C457,430.4,457.4,430.3,457.7,430.2z"></path>
		<path fill="#FFFFFF" d="M375.6,442.1c-0.2-0.1-0.2-0.1-0.3-0.2C375.1,441.9,375.1,442,375.6,442.1z"></path>
		<path fill="#FFFFFF" d="M426.4,434.5l0.1,0c0.1,0,0.1,0,0.1-0.1L426.4,434.5z"></path>
		<path fill="#FFFFFF" d="M466.6,445.8c0.3,0,0.8,0,1.5-0.1C467.1,445.8,466.4,445.8,466.6,445.8z"></path>
		<path fill="#FFFFFF" d="M421.9,450.4l2-0.1c-1,0-1.3,0-1.8-0.1C422.1,450.3,422.5,450.4,421.9,450.4z"></path>
		<path fill="#FFFFFF" d="M404.5,448.7c-0.3,0-0.6,0-0.9,0.1l0.1,0.1C404.9,448.9,405.8,448.8,404.5,448.7z"></path>
		<path fill="#FFFFFF" d="M420,449.4c-0.2-0.3-1.4-0.2-2.8-0.1c0.1,0,0.2,0,0.2,0C417,449.7,418.5,449.5,420,449.4z"></path>
		<path fill="#FFFFFF" d="M416.9,449.3c-0.4,0-0.9,0-1.3,0C415.4,449.5,416.1,449.4,416.9,449.3z"></path>
		<path fill="#FFFFFF" d="M434.5,449.8c-0.7-0.1-0.4,0.3-0.8,0.2C432.9,450.4,438.1,449.6,434.5,449.8z"></path>
		<polygon fill="#FFFFFF" points="418.9,448.5 419.4,448.8 420.2,448.6   "></polygon>
		<path fill="#FFFFFF" d="M429.9,448.6l-2.2-0.1c0,0.1-0.2,0.1-0.6,0.1C428.5,448.7,430,448.7,429.9,448.6z"></path>
		<path fill="#FFFFFF" d="M427.1,448.7c-0.7,0-1.4,0-1.8,0.1C425.7,448.7,426.5,448.7,427.1,448.7z"></path>
		<polygon fill="#FFFFFF" points="421.9,448.4 422.6,448.4 424.2,448.4   "></polygon>
		<path fill="#FFFFFF" d="M454.5,448.3l2.5-0.1c0-0.1-0.9-0.2-1.7-0.1C454.8,448.1,453.9,448.2,454.5,448.3z"></path>
		<path fill="#FFFFFF" d="M446.6,447.5c0.7,0.1,0.7,0.1,1.1,0.2l0.1-0.4L446.6,447.5z"></path>
		<path fill="#FFFFFF" d="M452.8,447.3c0-0.1,0.5-0.1,0.7-0.2c0.2-0.1,0.1-0.1-0.8-0.1c0,0.1-0.3,0.1-0.5,0.2    C451.9,447.3,451.9,447.3,452.8,447.3z"></path>
		<polygon fill="#FFFFFF" points="477.9,445.6 478.5,445.7 480.5,445.7 481.2,445.7 482.7,445.7   "></polygon>
		<path fill="#FFFFFF" d="M447.5,444.7c1.4,0.1,1.6,0.1,1.8,0c0.1,0,0.1-0.1,0.3-0.1c0.1,0,0.2,0,0.4,0c0,0,0.1,0,0.2,0    c0,0,0,0,0.1,0c0,0,0.1,0,0.2,0c0.1,0,0.1-0.1,0-0.1c0,0-0.1,0-0.1,0c-0.1,0-0.1,0-0.2,0c-0.5-0.1-1.1-0.1-0.7-0.2    C447.6,444.4,446.7,444.2,447.5,444.7z"></path>
		<path fill="#FFFFFF" d="M449.4,444.3c0.3,0,0.6,0,0.9-0.1C449.8,444.2,449.5,444.3,449.4,444.3z"></path>
		<polygon fill="#FFFFFF" points="343.9,431.3 342,431.2 343.2,431.4   "></polygon>
		<path fill="#FFFFFF" d="M340.3,431.9l-0.5-0.4l-1.1,0.4C339.2,431.9,340,431.9,340.3,431.9z"></path>
		<path fill="#FFFFFF" d="M364.7,434.8l-0.1,0.1c0.3,0.1,0.7,0.1,1.6,0.1C365.7,434.9,365.2,434.9,364.7,434.8z"></path>
		<polygon fill="#FFFFFF" points="390,434.5 389.6,434.5 390.4,434.8   "></polygon>
		<path fill="#FFFFFF" d="M411.3,433.9c-0.9,0-1.9,0.1-2.8,0.1C410.4,433.9,411.5,434.4,411.3,433.9z"></path>
	</g>
	<g opacity="0.27">
		<g>
			<polygon fill="#E0CFCF" points="243.4,425.4 227.3,425.3 227.3,426.1 243.3,426.2    "></polygon>
		</g>
		<g>
			<path fill="#E0CFCF" d="M209.5,446.8l-0.3,0c-0.8-0.1-1.8-0.1-2.2,0.1l-4.3,1.6c-0.5,0.2-0.2,0.4,0.5,0.5l0.3,0     c0.8,0.1,1.8,0.1,2.2-0.1l4.3-1.6C210.4,447.1,210.2,446.9,209.5,446.8z"></path>
			<path fill="#E0CFCF" d="M261.4,428.9L261.4,428.9c-0.8-0.1-1.8-0.1-2.2,0.1l-4.7,1.7c-0.5,0.2-0.2,0.4,0.5,0.5v0     c0.8,0.1,1.8,0.1,2.2-0.1l4.7-1.7C262.4,429.2,262.2,429,261.4,428.9z"></path>
			<path fill="#E0CFCF" d="M273.7,437.4c-3.2-5.4-24.3-9.1-47.1-8.3c-9.3,0.3-17.4,1.3-23.6,2.8c-2.7,0.6-4.9,1.3-6.8,2.1     c-4.4,1.8-6.4,4-5.1,6.2c3.2,5.4,24.3,9.1,47.1,8.3C261,447.8,276.9,442.8,273.7,437.4z"></path>
			<path fill="#E0CFCF" d="M263.4,434.4c4.7-0.6-4.7-2.8-14.2-3.5c-9.6-0.8-10-1.8-11.7-0.6c-1.7,1.2-0.9,1.9,8.6,2.7     S244.8,436.6,263.4,434.4z"></path>
			<path fill="#E0CFCF" d="M216.7,446.5c2.5-1.3,2.2-0.7,2.3-1.2c6,0.1,8.6,0.9,10.6,1.1C254,447.9,213.2,448.3,216.7,446.5z"></path>
			<path fill="#E0CFCF" d="M268.6,438.6c-6.1-0.3-5.4-1.9-10.9-2.5c-4.4-0.4,1.5-0.8,3-1.5c4.4-2.1,4-0.3,5.9,1     C268.5,437,271.8,438.7,268.6,438.6z"></path>
			<path fill="#E0CFCF" d="M221.3,445.2c0.2,0.1,0.7,0.5,0.6,0.6c-1,0.3-2.5,0.5-4,0.3c-1.3-0.2-2.2-0.6-3.3-0.9     c-2.8-0.6-6.2-0.5-9.7-0.5c-1.5,0-3.1,0-4.3-0.3c-0.9-0.2-1.5-0.5-1.9-0.7c-0.9-0.6-1.7-1.3-1.3-2c0.4-0.7,2.1-1.3,4.6-1.7     c1.1-0.2,2.9-0.4,4.3-0.4c1,0,1.5,0.1,2,0.3c1.4,0.5,2.1,1,4,1.4c1.1,0.2,2.4,0.3,3.7,0.4c1.1,0.1,2.4,0.2,3.2,0.4     c1.1,0.3,0,0.7-0.3,1c-0.4,0.4-0.3,0.8,0.2,1.2C219.7,444.5,220.7,444.9,221.3,445.2z"></path>
			<path fill="#E0CFCF" d="M212.1,440.4c-0.9-0.7-3.3-1.4-5.8-1.8c-1.8-0.3-4.3-0.3-4.1-0.9c0.3-0.7,1.6-1,4.2-1.1     c4.8-0.1,12.4-0.1,13.5,1.3c0.5,0.7-0.9,1.4-2.6,2C215.8,440.3,214.1,440.5,212.1,440.4z"></path>
			<path fill="#E0CFCF" d="M233.6,431.7c-0.3,0.2-0.9,0.4-1.8,0.5c-0.8-0.1-1.5-0.3-2-0.5c-0.8-0.2-1.8-0.4-2.1-0.6     c-0.6-0.6-0.1-1.1,2.5-1.3c1.2-0.1,2.9-0.1,3.8,0.1c1.1,0.3,1.1,0.6,0.6,0.9C234.2,431.2,234,431.5,233.6,431.7z"></path>
			<path fill="#E0CFCF" d="M248.2,446.4c-0.4,0.2-0.4,0.5-0.1,0.7c0.1,0.1,0.6,0.4,0.6,0.7c-0.9,0.1-1.9,0.2-2.8,0.3     c-1.4-0.2-2.2-0.6-3-0.9c-1.2-0.5-2.6-1-5.2-1.1c-1.6-0.1-3.1-0.2-4.6-0.4c-1.5-0.2-2.8-0.5-4.1-0.7c-1.3-0.2-2.5-0.5-3.7-0.8     c-0.6-0.1-2.4-0.4-2.1-0.7c0.4-0.3,2.3-0.4,3.4-0.4c1.5-0.1,3,0,4.5,0c2.9,0.1,5.7,0.3,8.5,0.4c2.9,0.2,5.3,0.5,7.9,0.8     c0.9,0.1,1.8,0.2,2.5,0.4c0.9,0.2,0.9,0.4,0.4,0.6C249.7,445.8,248.7,446.1,248.2,446.4z"></path>
			<path fill="#E0CFCF" d="M248.1,434.9c0.4-0.1,0.2-1.4-2.3-1.2c-1.9,0.1-8.2-0.9-5.8,0c1.7,0.6,2.1,0.2,4.3,0.5     C246.6,434.5,245.3,435.4,248.1,434.9z"></path>
			<path fill="#E0CFCF" d="M203,431.9c-1.5-0.2-3-0.2-4.6-0.3c-2.6-0.1-4.1-0.6-5.4-1.1c-0.9-0.3-1.7-0.7-3.2-0.9     c-0.9,0.1-1.8,0.2-2.8,0.3c0.1,0.2,0.6,0.5,0.7,0.7c0.3,0.3,0.3,0.5,0,0.8c-0.4,0.3-1.3,0.6-1.9,0.9c-0.5,0.3-0.5,0.4,0.5,0.6     c0.8,0.2,1.7,0.3,2.6,0.4c2.4,0.3,4.6,0.6,7.2,0.7C198,433.2,200.3,432.5,203,431.9z"></path>
			<path fill="#E0CFCF" d="M211.2,433.3c-1.3-0.2-2.5-0.5-3.9-0.7c-1.3-0.2-2.7-0.5-4.2-0.7c0,0-0.1,0-0.1,0     c-2.7,0.6-4.9,1.3-6.8,2.1c0.3,0,0.5,0,0.8,0c2.9,0.1,5.7,0.3,8.6,0.4c1.5,0,3.1,0,4.5,0c1,0,3-0.1,3.3-0.4     C213.7,433.6,211.8,433.4,211.2,433.3z"></path>
			<path fill="#E0CFCF" d="M204.5,447.8c-46.2-6.8-12.2-26.9,52.6-18.2"></path>
			<g>
				<polygon fill="#E0CFCF" points="230.8,443.7 231.5,443.7 230.9,445.9 230.3,445.9     "></polygon>
				<path fill="#E0CFCF" d="M237,444.9l-6.4-0.1l-0.2,0.9l6.1,0.1c0.6,0-1.3-0.3-1.3-0.5l0,0C235.2,445.3,237.4,444.9,237,444.9z"></path>
			</g>
			<g>
				<polygon fill="#E0CFCF" points="206.7,433.6 207.4,433.6 208.7,435.7 208,435.7     "></polygon>
				<path fill="#E0CFCF" d="M213.8,434.5l-6.4,0.2l0.5,0.9l6.1-0.2c0.6,0-1.6-0.3-1.7-0.4l0,0C212.3,434.9,214.2,434.5,213.8,434.5z      "></path>
			</g>
			<g>
				<polygon fill="#E0CFCF" points="260.8,435.7 261.4,435.7 259.9,437.9 259.2,437.8     "></polygon>
				<path fill="#E0CFCF" d="M266.3,437.1l-6.4-0.3l-0.7,0.9l6,0.2c0.6,0-1.2-0.4-1-0.5l0,0C264.4,437.4,266.7,437.1,266.3,437.1z"></path>
			</g>
		</g>
		<rect x="234.2" y="425.7" fill="#E0CFCF" width="1.8" height="3.3"></rect>
	</g>
	<g>
		<path fill="#999AA9" d="M14.9,341.5h75.3c1,0,1.8-0.8,1.8-1.8V338c0-1-0.8-1.8-1.8-1.8H14.9c-1,0-1.8,0.8-1.8,1.8v1.7    C13.1,340.7,13.9,341.5,14.9,341.5z"></path>
		<path fill="#999AA9" d="M89.4,423.4L89.4,423.4c-1.9,0.1-3.6-0.8-3.8-2.1l-11.7-79.1c-0.2-1.3,1.2-2.4,3.1-2.5h0    c1.9-0.1,3.6,0.8,3.8,2.1l11.7,79.1C92.7,422.1,91.3,423.3,89.4,423.4z"></path>
		<path fill="#999AA9" d="M18.8,427.5L18.8,427.5c-1.9-0.1-3.4-1.2-3.3-2.4l7.6-82.6c0.1-1.3,1.8-2.2,3.7-2.1h0    c1.9,0.1,3.4,1.2,3.3,2.4l-7.6,82.6C22.4,426.6,20.7,427.5,18.8,427.5z"></path>
		<path fill="#999AA9" d="M24.1,373.8h57.1c0.6,0,1.1-0.5,1.1-1.1v-1.1c0-0.6-0.5-1.1-1.1-1.1H24.1c-0.6,0-1.1,0.5-1.1,1.1v1.1    C22.9,373.3,23.5,373.8,24.1,373.8z"></path>
		<path fill="#73737F" d="M81.1,341.2c0,0.1,0.1,0.2,0.1,0.4l11.7,83.5c0.2,1.2-1.1,2.2-2.8,2.4l-0.7,0c-1.7,0.1-3.3-0.8-3.4-1.9    l-11.7-83.5c0-0.2,0-0.5,0.1-0.7C76.6,341.3,78.8,341.2,81.1,341.2z"></path>
		<path fill="#73737F" d="M58.9,370.5h21.3c1.4,0,2.6,0.8,2.6,1.7c0,0.9-1.2,1.7-2.6,1.7H52.9C54.9,372.7,56.9,371.6,58.9,370.5z"></path>
	</g>
	<rect x="374.4" y="395.7" fill="#AD5B51" width="8.1" height="11.7"></rect>
	<rect x="404.5" y="398.1" fill="#AD5B51" width="8.1" height="11.7"></rect>
	<g>
		<path fill="#D9D8DF" d="M294.8,360h-83.3c-27.1,0-49.2-22.1-49.2-49.2V103.4c0-27.1,22.1-49.2,49.2-49.2h83.3    c27.1,0,49.2,22.1,49.2,49.2v207.4C344,337.8,321.9,360,294.8,360z"></path>
		<path fill="#F2F2F2" d="M295.3,330.5h-84.2c-21.9,0-39.9-17.9-39.9-39.9v-188c0-21.9,17.9-39.9,39.9-39.9h84.2    c21.9,0,39.9,17.9,39.9,39.9v188C335.2,312.6,317.2,330.5,295.3,330.5z"></path>
		<ellipse fill="#FBFAFB" cx="253.2" cy="343.7" rx="9.3" ry="10"></ellipse>
		<polygon fill="#D9D8DF" points="298.3,70.3 208.8,70.3 205.2,58.4 302.6,58.4   "></polygon>
	</g>
	<text transform="matrix(1 0 0 1 451.4975 127.7342)" font-family="'MyriadPro-Regular'" font-size="7.659px"> </text>
	<path opacity="0.22" fill="#73737F" d="M272.1,318.4H344v-51.1l-52.1-0.3c-1.7,3.4-16.5,20.1-19.8,22.4L272.1,318.4z"></path>
	<path fill="#AD5B51" d="M375,199.6c0,0.1-0.1,0.9-0.1,0.9l-0.6,6.7c-0.1,0.7-0.2,1.4-0.4,2.1c0,0.1,0,0.2-0.1,0.3   c-0.8,4.3-2,8.5-3.3,12.6c-2.9-1-6-2.2-7.5-4.7c-1.1-1.7-1.7-3.3-2.6-4.8c1.7-7.9,0.1-12.3-0.2-15.6c-0.1-0.9-0.7-2.7-0.8-5.2   c0-0.5,0-0.4,0-0.6c0-0.1,0-0.2,0-0.4c0-0.1,0-0.1,0-0.1c0-0.2,0-0.4,0-0.7c0-3.5-0.4-7.4-0.6-11.1c0-0.4,0.1-0.7,0.1-1.1   c0.2-1.2,0.4-2.5,0.8-3.7c0-0.1,0-0.1,0.1-0.2c0,0,0-0.1,0-0.1c0-0.1,0.1-0.3,0.2-0.4l0,0c0.1-0.2,0.2-0.4,0.2-0.6   c0.5-1.1,1.2-2.6,1.5-3.5c0-0.1,0-0.1,0.1-0.2l0,0v0c0.1-0.1,0.1-0.3,0.1-0.3l0,3.2c0.7,0.7,1.7,1.5,2.9,2.3c0.6,0.4,1.3,0.8,2,1.2   c0.1,0,0.2,0.1,0.2,0.1c0.1,0.1,0.2,0.1,0.3,0.2c1.6,0.9,3.2,1.5,4.5,1.9c0.1,0.5,0,0.6-0.1,0.6c-0.3,1.5,0.4,1.1,0.4,1.2   c1.1,3.3,2.7,5.4,3,9.3c0.1,1.4,0.2,2.8,0.2,4.3c0,0.8,0,1.5,0,2.3C375.2,197.1,375.3,198,375,199.6z"></path>
	<path fill="#AD5B51" d="M355.5,228.7c1-2.7,1.7-6.4,2.6-8.7c0.7-1.7,1.6-4.1,2.3-7.4c4.7-0.3,10.1-7.4,14.2-9.5   c0.1,0.8-0.2,2.5-0.2,3c0,0-0.1,0.5-0.1,0.9c0,0.4,0,2,0,2.4c0,0.2,0.1,1.1,0.1,1.3c0,0.5,0,1-0.1,1.5c0-0.2,0,0.1,0,0.1   c0,0,0,0.1,0,0.1l-1.4,4l-2.6,7.4c-1.9,4.6-8.5,20.3-11.4,22.2l-6.3-1.3C353,241,354,232.9,355.5,228.7z"></path>
	<path fill="#212131" d="M388.6,361c-1.4,23.4-6.7,45-6.7,45c-2.3-0.2-3-22.5-1.6-45.9c1.4-23.4,6-38.1,6.9-41   C387.8,317,389.9,337.6,388.6,361z"></path>
	<path fill="#212131" d="M416.6,360.6c0,23.4-4,45.5-4,45.5c-2.3,0-4.2-22.1-4.2-45.5s5.9-35,6-38.1   C414.7,309.8,416.6,337.1,416.6,360.6z"></path>
	<polygon fill="#2C2C41" points="387.2,325.7 366,325.7 361.9,240.9 392.6,245.2  "></polygon>
	<polygon fill="#2C2C41" points="415,325.6 394.4,325.7 388.9,243 422.3,242.1  "></polygon>
	<polygon fill="#2C2C41" points="381.6,406.1 373.7,405.4 366,325.2 387.2,325.2  "></polygon>
	<path fill="#212131" d="M390.5,247.2c-0.3,17.3-0.8,28.5-3,44.5c-1.2,8.6-2,20.7-1,29.4c0.2,1.4,0.6,6.6,0.8,5.3   c0.1-0.8,0.2-1.5,0.5-2.2l0.1-1l4.8-75.9H390.5z"></path>
	<polygon fill="#2C2C41" points="412.5,406.1 404.5,406.1 394.4,325.6 414.7,324.8  "></polygon>
	<path fill="#212131" d="M407.6,258.6c2.4,2.6,5.2,4.8,8.2,6.4c1.2,0.6,2.7,1.5,4.2,2.2l2.2-25.3h-24.8   C399.7,248.1,403.7,254.4,407.6,258.6z"></path>
	<path fill="#212131" d="M375.5,252.8c-2.4,2.6-5.2,4.8-8.2,6.4c-1.2,0.6-3,1.1-4.5,1.7l-1.9-24.8h24.8   C383.4,242.2,379.4,248.5,375.5,252.8z"></path>
	<path fill="#212131" d="M415.8,245.2c-1.1,15.8,1.4,31.9,0.7,47.3c-0.6,13-1.7,21.2-2,32.9c0,0.3,0,3.1,0.1,1.8l0.3,0.6l7-82.6   c0.1-1.4-0.8,0-2,0H415.8z"></path>
	<g>
		<path fill="#2F2F2F" d="M372.6,403.3c0.1-0.3,0.1-0.6,0.1-1c0.1-1.5-1.2-2-2.3-1.9c-0.8,0.1-1.8,0.6-2.2,1.2    C369.6,402.1,371.2,402.7,372.6,403.3z"></path>
		<path fill="#E0E1DF" d="M383.8,416l-29.5,3.3c-0.6,0-5.1-0.7-5.1-1.3l0-2.8c0-0.2,0.4-0.7,0.5-0.6c1.3,0.7,10.1,1.4,13.4,1.1    l7.5-0.5c1.1-0.1,12.4-1.8,14.8-2.6c0.2-0.1,0.4,0.1,0.4,0.2l0.2,1.9C386,415.3,384.4,416,383.8,416z"></path>
		<path fill="#E0E1DF" d="M380.8,416.4c12.3-2.8-3.3,1.6-10.7,2.9c-7.6,1.3-20.8-0.1-20.9-1.2s9.6-1.2,17.3-1.9    C374.2,415.4,379.7,416.6,380.8,416.4z"></path>
		<path fill="#2F2F2F" d="M385.3,412.9l-9.6,1.6c-0.2,0-10.6,1.8-9.9,0.9c0,0,0,0,0,0l-2.7-2.7c0,0,0-0.1,0-0.1l12.5-8.7    c0.3-0.2,0.8-0.1,1,0.2c0.8,1.5,2.9,2.2,4,2.3l0,0.1l4.4,5.2c0.1,0.1,0.2,0.2,0.3,0.2C385.6,412.2,385.8,412.4,385.3,412.9z"></path>
		<path fill="#2F2F2F" d="M385.3,412c-0.2,0.7-0.5,1-0.9,1.1c-0.7,0.1-5.7-5.5-3.7-6.5c-0.1-0.1-0.1,0,0-0.1    c0.2-0.1,0.7-0.2,0.8-0.4c0,0,0-0.1,0.1-0.1c0.1-0.2,0.2-0.5,0.2-0.8c0-0.4,0-0.9,0-1.5c0-0.1,0.1-0.1,0.2-0.1    c0.7-0.1,2.1,2.9,3.1,5.4C385.4,410.3,385.4,411.3,385.3,412z"></path>
		<path fill="#1D1D1D" d="M381.4,406.1c-0.1,0.2-0.3,0.3-0.5,0.3C381.1,406.4,381.3,406.3,381.4,406.1z"></path>
		<path fill="#1D1D1D" d="M363.1,412.8l12.5-8.8l-2.8-1.4c-0.5-0.3-1.1-0.2-1.5,0.2l-9.7,8.8L363.1,412.8z"></path>
		<polygon fill="#2F2F2F" points="361.7,411.6 359.3,411 368.2,401.6 372.7,402.5   "></polygon>
		<path fill="#E0E1DF" d="M370.3,410.7c0.7-1,1.1-2,2.3-2.5c1.1-0.5,2.1,0,3.3,0.1c1.4,0,1.5-1.9,2.7-2.3c0.1,0.1,0.7,0.3,1,0.4    c-1.3,0.9-1.8,3.1-3.3,3c-1.8-0.1-3.4-0.2-4,1.2c-0.8,1.9-2.4,3-4.6,3.9c-1,0.4-1.7,0.8-2.7,0.9c0.1-0.4-0.5-1.2-0.6-1.6    C366.5,413.8,369,412.6,370.3,410.7z"></path>
		<path fill="#2F2F2F" d="M364.8,414c3.4,2.3,4.4,1.3-5.7,2c-5,0.3-9.9-0.5-9.3-1.5c0.6-1.1,2.6-0.2,7.6-3    C361.1,409.4,363.7,413.3,364.8,414z"></path>
		
			<rect x="366.4" y="403.5" transform="matrix(0.9786 -0.206 0.206 0.9786 -75.6236 84.2275)" fill="#E0E1DF" width="0.6" height="3.7"></rect>
		
			<rect x="364.3" y="404.9" transform="matrix(0.9868 -0.1622 0.1622 0.9868 -60.8692 64.8768)" fill="#E0E1DF" width="5.4" height="0.6"></rect>
		
			<rect x="364.2" y="406" transform="matrix(0.9345 -0.356 0.356 0.9345 -121.1947 156.4739)" fill="#E0E1DF" width="0.6" height="3.1"></rect>
		
			<rect x="361.8" y="407.4" transform="matrix(0.9791 -0.2033 0.2033 0.9791 -75.2709 82.5782)" fill="#E0E1DF" width="5.3" height="0.6"></rect>
		
			<rect x="361.6" y="408.3" transform="matrix(0.9658 -0.2594 0.2594 0.9658 -93.9035 107.9105)" fill="#E0E1DF" width="0.6" height="2.8"></rect>
		<rect x="360" y="409.5" transform="matrix(0.98 -0.1991 0.1991 0.98 -74.3526 80.329)" fill="#E0E1DF" width="4.4" height="0.6"></rect>
		<path fill="none" stroke="#E0E1DF" stroke-miterlimit="10" d="M370.1,404.4"></path>
		<path fill="none" stroke="#E0E1DF" stroke-miterlimit="10" d="M366.6,403.3"></path>
	</g>
	<path fill="#DFBD97" d="M358.9,183l6.2,0.2l11.3,0.8l1.6-18.1l-3.9-6.5c0.1-2.7-1.1-4.7-2.8-4.7c-3.3,0-6.4,5.3-9.8,13.9   C357.2,180.1,359.2,181.9,358.9,183z"></path>
	<path fill="#AD5B51" d="M376,134.1c1.1,0.5,2.3,0.9,3.5,1l5.8,0.7c4.4,0.5,8.5-2.9,9-7.5l1.5-13.4c0.5-4.7-2.7-8.9-7.1-9.4   l-6.5-0.7c-3.8-0.4-5.2,1.4-7.6,5.2c-1,1.6-1.7,3.4-1.9,5.3l-1.2,10.6c-0.1,0.7-0.1,1.3,0,2C371.8,131.8,372.7,132.4,376,134.1z"></path>
	<path fill="#AD5B51" d="M383.6,130.7l-11.9-1.2c0,0-0.3,5,12,7.6c6.4,1.4,11.9-3,11.9-6.5c0-0.3,0-0.5-0.1-0.8L383.6,130.7z"></path>
	<path fill="#DFBD97" d="M421.5,172.1L421.5,172.1l0.8,70c-0.1,1-3.5,1.5-5.5,1.8c-0.5,0.1-1,0.2-1.4,0.4c-0.4,0.2-0.8,0.3-1.1,0.5   c-1.5,0.6-3,1.3-4.6,1.8c-5,1.7-10,2.7-15.1,3.2c-8.3,0.8-18.4-8.3-26.8-11.7c-0.2-0.1-2-0.6-3.3-0.8c-0.3-0.1-0.7-0.1-1-0.3   c-0.9-0.3-2.6-1-2.6-1c-2.5-1.4,3.4-9.7,3.4-34c0-23.4,2.4-42.3,5.6-46.8c0,0,0,0,0,0c0,0,0.1-0.2,0.5-0.3c0,0,2.3-0.7,2.8,0   l-1.9,0.1c0.1,0-0.1,0,0,0c0,0,0,0,0,0c0.2,0,0.3-0.1,0.2-0.1c0.1-0.1,0.1-0.1,0-0.1l3.7-0.8l8.5-1.8l7.1,0.4l5.7,0.5l23,2   c0.6,1.7,0.8,3.3,0.8,6.7v8.2c0,0.5,0.3,0.9,0.7,1C421.2,171.2,421.5,171.6,421.5,172.1z"></path>
	<g>
		<path fill="#B99064" d="M373,156c-0.1,0.1-0.2,0.2-0.2,0.3C372.9,156.2,372.9,156.1,373,156z"></path>
		<path fill="#B99064" d="M372.8,156.4C372.8,156.4,372.8,156.3,372.8,156.4C372.8,156.3,372.8,156.4,372.8,156.4z"></path>
		<path fill="#B99064" d="M372.8,156.4C372.8,156.4,372.8,156.5,372.8,156.4C372.8,156.5,372.8,156.4,372.8,156.4z"></path>
		<path fill="#B99064" d="M372.8,156.5c0,0,0,0.1,0.1,0.1c0,0,0.1,0.1,0.1,0.1c0.2,0.2,0.7,0.4,1.4,0.7c0.2,0.1,0.3,0.1,0.5,0.2    c0.2,0.1,0.3,0.1,0.5,0.2c0.1,0,0.3,0.1,0.4,0.1c0.1,0,0.2,0.1,0.3,0.1c0.2,0.1,0.4,0.1,0.5,0.2c0.2,0.1,0.4,0.1,0.5,0.1    c0.6,0.1,1.2,0.3,1.8,0.4c1.1,0.2,2.3,0.5,3.4,0.7c3.6,0.9,7.1,2.4,10.6,3.5c3.6,1.1,16.6,2.7,20.1,0.6c2.5-1.4-4.9-4.7-2.7-6.6    c0,0,0,0,0,0c0.2-0.1,0.3-0.3,0.5-0.4c0.2-0.1,0.3-0.2,0.5-0.4c0.1-0.1,0.2-0.2,0.3-0.2c0.1-0.1,0.3-0.2,0.4-0.3    c0.1-0.1,0.3-0.2,0.4-0.3c0.1-0.1,0.3-0.2,0.4-0.3c0.4-0.3,0.8-0.5,1.3-0.7c0.1-0.1,0.3-0.2,0.4-0.2c0.1-0.1-0.1,0.1,0,0    c0.1-0.1-1.2-0.6-1.1-0.7c0.1-0.1,0.5,0.2,0.6,0.1c0.1-0.1-2.6,2.4-2.5,2.3c0.2-0.1-0.5,0.3-0.3,0.2c0.1-0.1,2.7-1.7,2.8-1.8    c0.4-0.1-2.8-1.9-2.5-2c-6.8-0.8-9.5-0.7-19.7-0.4c-4.5,0.2-8.9,0.5-13,1c-1.6,0.5-3.2,1-4.5,1.9c-0.7,0.4-1.1,0.7-1.3,0.9    c-0.1,0.1-0.2,0.2-0.2,0.3C372.8,156.4,372.8,156.4,372.8,156.5z"></path>
		<path fill="#B99064" d="M412,155.8C411.9,155.8,412.2,155.7,412,155.8c0.2-0.1,2.3,2.4,2.5,2.4L412,155.8z"></path>
		<path fill="#B99064" d="M414.1,154.5c-0.4,0.2-0.9,0.5-1.3,0.7C413.3,155,413.7,154.7,414.1,154.5z"></path>
	</g>
	<path fill="#B99064" d="M403.4,149.5c-2-1.3-5.5-1.5-9.6-1.6c-3.8-0.1-7.2,0.5-9.6,1.5c-0.6,1.5-2.1,2.6-3.5,3.5   c0.9,2.2,6.4,3,11.7,3.2c5.5,0.1,10.8-0.4,12.4-2.3C404.4,152.5,403.6,150.8,403.4,149.5z"></path>
	<path fill="#B99064" d="M405,153.4c-0.4,1.9-5.4,0.8-12.3,0.6c-6.9-0.2-6.2,3.1-12-1.1c-0.6-0.4,5.2-1.3,12.1-4.8   C398.9,144.9,405.2,152.6,405,153.4z"></path>
	<path fill="#AD5B51" d="M378.5,121.4l14.2,3.5c3.4,0.9,7-1.3,7.8-4.7l4.9-19.8c0.9-3.4-1.3-7-4.7-7.8l-8.6-2.1   c-6.5-1.6-13.2,2.4-14.8,8.9l-3.5,14.2C372.9,117,375,120.5,378.5,121.4z"></path>
	<path fill="#AD5B51" d="M382.6,148.6c2.1-1.2,6-2.1,10.4-2.2c4.1-0.1,7.9,0.5,10.4,1.5c0.6,1.4,1.6,2.7,2.8,4   c-1.4,1.8-6,3.2-11.8,3.3c-6,0.1-11.2-0.4-13-2.3C381.9,151.8,382.3,149.9,382.6,148.6z"></path>
	<path fill="#AD5B51" d="M382.8,146.5c0-0.4,0.3-1.8,0.3-1.8c0.3-2.2,0.2-4.4-0.3-6.6c-0.6-2.7-1.8-5.5-3.8-8.2   c-0.4-0.6-0.8-1.2-1.3-1.8l25.1,2.2c-1.6,2.8-2.3,5.8-2,8.8c0,0.1,0,0.3,0,0.4c0,0.5,0.1,0.9,0.2,1.4c0,0.2,0.1,0.5,0.2,0.7   c0,0.3,0.1,0.5,0.2,0.8c0.1,1.7,0.8,3.5,1.9,5.3c0.6,1.4,1.5,2.7,2.6,4l-23.5-2.1C382.7,148.3,382.7,147.8,382.8,146.5z"></path>
	<path fill="#FF3F3D" d="M397.9,140.5c-1.3-3.6-2.7-7.2-4.1-10.8l9.4,0.9c-1.6,2.9-2.2,5.9-1.9,9c0,0.1,0,0.3,0,0.4   c0,0.5,0.1,1,0.2,1.4c0,0.2,0.1,0.5,0.2,0.7c0,0.3,0.1,0.5,0.2,0.8c0.1,1.7,0.7,3.6,1.8,5.4c3.5,4.6,2.6,3.6,2.4,4l0,0   c-0.4,0.2-0.9,0-1.1-0.4C403.2,148.1,400.5,144,397.9,140.5z"></path>
	<path fill="#A75248" d="M383.6,136.2c6.2,0.4,11.9-2.1,15.9-7c0.4,0.8,0.8,1.7,1.2,2.5c-0.9,0.8-1.9,1.5-2.9,2.1   c-4.7,2.9-9.9,3.7-14.7,2.8C383.3,136.5,383.4,136.3,383.6,136.2z"></path>
	
		<ellipse transform="matrix(0.7201 -0.6939 0.6939 0.7201 23.8994 305.9375)" fill="#AD5B51" cx="391.2" cy="123.3" rx="14" ry="10.8"></ellipse>
	<path fill="#A75248" d="M396.5,127.8c0.2-1,0.3-1.9,0.3-3c0-0.4,0-0.9-0.1-1.3c0-0.5-0.7-9.5-0.8-10c0.4-1.4-0.3,6.3-1.2,6.4   c-1.9,0.4-2.5,8-3.8,8.2c0.5-6.6,2.7-30.4-0.3-31.2c2.3-1,4.9-1.6,7.7-1.6c3.7,0,7.2,1.1,10.1,2.9c0.1,0.2,0.2,0.4,0.3,0.6   c0,0.2,0.1,0.3,0.2,0.5c0.2,0.7,0.4,1.3,0.6,2c1.1,3.8,1.1,7.8-0.1,11.5c-1.3,4.1-3.6,7.9-5.4,11.8c-1.4,2.2-2.6,4.5-3.3,7.1   c-0.8,0.1-1.2,1.4-2,1.4c-1,0-5.9,2.7-6.8,2.5c2.5-1.3,4.4-6.2,4.5-7.4C396.5,128.1,396.5,127.9,396.5,127.8z"></path>
	<path fill="#A75248" d="M403.6,113.2c-0.1,0.3-0.2,1-0.4,0.8c-3.4-3.2-10.7-6.3-15.2-8.7c-7.8-4.2-12.4-6-9.4-10.6   C387.8,99.9,397.5,104.4,403.6,113.2z"></path>
	<path fill="#333333" d="M408.5,166.2c-39.4-10.7-11.2-27.9-9.2-42.7c-0.1-2.1-1.2-4.2-3.1-5.1c-1.1-0.5-4.2,10-5.3,9.7   c0.4-1.3,1.6-12.5,2.3-19c0.1-1.2-0.5-2.4-1.6-3c-10.1-5.1-14.9-5.4-14-12.3c0.8-6.4,24.2-8,28.6,0c0.7,1.3,1.6,1.7,2.5,1.9   c0,0,0,0,0,0c0.1,0,0.3,0.1,0.4,0.1c1.5,0.3,2.8,1,3.8,2.2c1,1.3,1.8,3.2,1.9,5.7c0.1,3.5-1.7,8.1-0.9,14.6   C418.8,163.8,413.2,167.5,408.5,166.2z"></path>
	
		<ellipse transform="matrix(0.8037 -0.595 0.595 0.8037 7.6904 261.9684)" fill="#AD5B51" cx="400.9" cy="119.3" rx="5.7" ry="4.6"></ellipse>
	<path fill="#B99064" d="M432.4,185.9l-6.8,0.3l-11.7,0.9l-1.6-17.2c-0.1-0.8,0.3-1.6,1.1-2l2.2-1.2c-0.2-3,2.4-7.2,4.4-7.2   c3.6,0,5.9,1.3,9.6,10.7C434.4,182.7,432.2,184.6,432.4,185.9z"></path>
	<path fill="#333333" d="M412.5,128.7c3.2,9.8,3.9,20.3,2,29.5c-1.8,8.5,2,8.8-24-6.2c-8.5-4.9,10.3-29.3,16.2-28.3   C408.6,123.9,409.9,120.8,412.5,128.7z"></path>
	<path fill="#D7282F" d="M413.9,188.3c0-0.9-0.1-0.8-0.1-1.7C413.9,185.9,413.9,188.6,413.9,188.3z"></path>
	<path fill="#B99064" d="M413.9,186.6c0,3.5,0.9,6.2,1,7.4c0.3,3.6,1.3,11.8-0.1,20.2c4.7,9.5,4-6.6,6.5-5.1   c2.9,1.8,6.1,2.7,9.3,3.8c0.3-1.3,0.6-2.6,0.8-3.8c0-0.1,0.1-0.3,0.1-0.4c0.2-0.8,0.3-1.7,0.4-2.5l0.8-8c0,0,0.1-0.9,0.1-1.1   c0.3-1.9,0.2-2.9,0.3-5.2c0-0.9,0.1-1.8,0.1-2.8c0-1.7-0.1-3.5-0.2-5.1c-0.4-4.6-2.3-7.2-3.6-11.2c0-0.1-0.9,0.4-0.5-1.4   c0.1,0.1,0.3-0.1,0.2-0.7c-1.5-0.4-3.4-1.2-5.4-2.3c-0.1-0.1-0.3-0.1-0.4-0.2c-0.1-0.1-0.2-0.1-0.3-0.2c-0.9-0.5-1.7-1-2.5-1.5   c-1.4-0.9-2.6-1.9-3.5-2.7l0.4-1.8c0,0.1,0.1-0.3,0.1-0.1l-0.1,0.1l-0.3,0.3c0,0.1-0.4-0.1-0.4,0c-0.4,1-1.1,1-1.6,2.4   c-0.1,0.3-0.2,0.5-0.3,0.7l0,0c-0.1,0.2-0.1,0.4-0.2,0.5c0,0.1,0,0.1-0.1,0.1c0,0.1-0.1,0.2-0.1,0.2c-0.4,1.5-0.7,3-0.9,4.5   c-0.1,0.4-0.1,0.9-0.2,1.3c0.2,4.5,0.7,9.2,0.7,13.4C413.9,186,413.9,186.3,413.9,186.6z"></path>
	<path fill="#B99064" d="M373,234.7c0-1.1,0-2.1,0.2-3.2c-1,0-2-0.1-2.6-0.1c-2.4-0.1-3.5,2.1-6.3,0.8c-2.6-1.2,1.1,4.9,6.4,3.1   C371.3,235.2,372.1,235,373,234.7C373,234.8,373,234.8,373,234.7z"></path>
	<path fill="#D7282F" d="M381.8,232.2c-0.2,1-0.2,2.2-0.2,3.2c0,0,0,0.1,0,0.1c0.3,0.3,0.7,0.6,0.9,1c0.7,0.9,0.8,1.9,1.2,3   c0.1,0.4,0.2,0.7,0.2,1c0.3-0.4,0.6-0.8,0.9-1.2C388.4,234.6,385.2,232.6,381.8,232.2z"></path>
	<g>
		<path fill="#191925" d="M375.4,244.7c4.2-3.8,9.2-9.3,7.6-7.5c-3.9,4.3-0.2,7.6-5.5,10.2c-6.8,3.3-11.3,5.4-9.8,3.5    C369.5,248.5,371.2,248.5,375.4,244.7z"></path>
		<path fill="#191925" d="M371.1,244.7c4.8-3.1,8.2-9.3,8.7-6.4c0.6,3.6-2.3,8-6.9,9.5c-5.6,1.9-11.9,3.3-10.6,1.8    C363.9,247.9,366.3,247.8,371.1,244.7z"></path>
		<path fill="#191925" d="M377.1,237c-0.2-3-4.1,2.8-9.1,5.4c-2.9,1.5-5,1.8-6.6,2.3c0,0.9,0.5,2.2,0.4,3.1c2.1-0.2,4.7-1.4,7.7-2.1    C374.2,244.8,377.4,240.7,377.1,237z"></path>
		<path fill="#191925" d="M379,241.5c-10.7-12.4-6-5.7-10.2-3.9c-2.6,1.1-5.6,2.4-7.5,3.5c0.1,0.7,0.1,1.4,0.1,2.1    c2.3-0.1,3.3-1.2,7.7-1.5C374.4,241.2,381,243.8,379,241.5z"></path>
	</g>
	<path fill="#AD5B51" d="M381.1,231.8l1.5,8.9c4,1.1,23.4-5.6,29.1-7.6l8.7-3.6l4.7-1.9c0,0,0-0.1,0.1-0.2c0.1,0,0.1,0,0.1,0   c0.5-0.3,1-0.7,1.4-1.1c0.2-0.3,0.5-0.7,0.7-1c0,0,0,0,0,0c2-5.6,3.5-11.2,4.6-17.1c0-0.1,0.1-0.3,0.1-0.4c0.2-0.8,0.3-1.7,0.4-2.5   l0.8-8c0,0,0.3-2.1,0-0.5c0.4-2.3,0.3-3.3,0.4-5.7c0-0.9,0.1-1.8,0.1-2.8c0-1.7-0.1-3.5-0.2-5.1c-0.4-4.6-2.3-7.2-3.6-11.2   c0-0.1-1.1,0.5-0.4-2.1c-0.9,0.3,0.3,1.4,0,0c-1.5-0.4-3.4-1.2-5.4-2.3c-0.1-0.1-0.3-0.1-0.4-0.2c-0.1-0.1-0.2-0.1-0.3-0.2   c-0.9-0.5-1.7-1-2.5-1.5c-1.4-0.9-2.6-1.9-3.5-2.7l0-3.9c0,0.1-0.1,0.2-0.2,0.4v0l0,0c0,0.1,0,0.1-0.1,0.2c-0.4,1-1.3,2.8-1.8,4.2   c-0.1,0.3-0.2,0.5-0.3,0.7l0,0c-0.1,0.2-0.1,0.4-0.2,0.5c0,0.1,0,0.1-0.1,0.1c0,0.1-0.1,0.2-0.1,0.2c-0.4,1.5-0.7,3-0.9,4.5   c-0.1,0.4-0.1,0.9-0.2,1.3c0.2,4.5,0.7,9.2,0.7,13.4c0,0.3,0,0.6,0,0.9c0,0.9,0.1,0.3,0,1.2c-0.1,0.6,0-2,0-1.2   c0,3.5,0.9,6.2,1,7.4c0.3,4,2.4,9.7,0,19.9c-2,0.9-8.3,4.8-10.4,6c-2.5,1.5-6.7,3.4-9.9,4.7C390.4,225.8,384.9,229.2,381.1,231.8z"></path>
	<path fill="#AD5B51" d="M375.9,243.7c4.2-3.8,9.2-9.3,7.6-7.5c-3.9,4.3-0.2,7.6-5.5,10.2c-6.8,3.3-11.3,5.4-9.8,3.5   C370,247.5,371.7,247.5,375.9,243.7z"></path>
	<path fill="#AD5B51" d="M371.6,243.7c4.8-3.1,8.2-9.3,8.7-6.4c0.6,3.6-2.3,8-6.9,9.5c-5.6,1.9-11.9,3.3-10.6,1.8   C364.4,246.9,366.8,246.8,371.6,243.7z"></path>
	<path fill="#AD5B51" d="M385.7,238.5c-8.3,11-12,9.7-14.6,5.8c-1.9-2.8-1.8-7.9,0.5-9.8c2.7-2.2,3.7-1.2,6.3-2.5   C381.3,230.3,391,231.4,385.7,238.5z"></path>
	<path fill="#AD5B51" d="M368.5,241.4c5-2.6,8.8-8.4,9.1-5.4c0.3,3.7-2.9,7.7-7.5,8.7c-5.7,1.2-11.9,2.7-10.6,0.6   C360.8,243.1,363.5,244,368.5,241.4z"></path>
	<path fill="#AD5B51" d="M369.6,240.6c5.3-0.4,11.9,2.2,9.9-0.1c-10.7-12.4-6-5.7-10.2-3.9c-5.2,2.2-11.8,5.3-8.9,5.6   C364,242.5,364.4,241.1,369.6,240.6z"></path>
	<path fill="#DFBD97" d="M434,185.9l-6.8,0.3l-12.4,0.9l-1.8-19.8l4.3-7.1c-0.2-3,0.1-4.8,2.1-4.8c3.6,0,8.1,5.4,11.7,14.8   C435.9,182.7,433.7,184.6,434,185.9z"></path>
	<g>
		<path fill="#2F2F2F" d="M403.7,404.6c0.1-0.3,0.1-0.6,0.1-1c0.1-1.5-1.2-2-2.3-1.9c-0.8,0.1-1.8,0.6-2.2,1.2    C400.8,403.4,402.4,404,403.7,404.6z"></path>
		<path fill="#E0E1DF" d="M414.9,417.3l-29.5,3.3c-0.6,0-5.1-0.7-5.1-1.3l0-2.8c0-0.2,0.4-0.7,0.5-0.6c1.3,0.7,10.1,1.4,13.4,1.1    l7.5-0.5c1.1-0.1,12.4-1.8,14.8-2.6c0.2-0.1,0.4,0.1,0.4,0.2l0.2,1.9C417.1,416.6,415.5,417.3,414.9,417.3z"></path>
		<path fill="#E0E1DF" d="M411.9,417.7c12.3-2.8-3.3,1.6-10.7,2.9c-7.6,1.3-20.8-0.1-20.9-1.2c-0.1-1.1,9.6-1.2,17.3-1.9    S410.9,417.9,411.9,417.7z"></path>
		<path fill="#2F2F2F" d="M416.5,414.2l-9.6,1.6c-0.2,0-10.6,1.8-9.9,0.9c0,0,0,0,0,0l-2.7-2.7c0,0,0-0.1,0-0.1l12.5-8.7    c0.3-0.2,0.8-0.1,1,0.2c0.8,1.5,2.9,2.2,4,2.3l0,0.1l4.4,5.2c0.1,0.1,0.2,0.2,0.3,0.2C416.7,413.5,417,413.7,416.5,414.2z"></path>
		<path fill="#2F2F2F" d="M416.4,413.3c-0.2,0.7-0.5,1-0.9,1.1c-0.7,0.1-5.7-5.5-3.7-6.5c-0.1-0.1-0.1,0,0-0.1    c0.2-0.1,0.7-0.2,0.8-0.4c0,0,0-0.1,0.1-0.1c0.1-0.2,0.2-0.5,0.2-0.8c0-0.4,0-0.9,0-1.5c0-0.1,0.1-0.1,0.2-0.1    c0.7-0.1,2.1,2.9,3.1,5.4C416.6,411.6,416.6,412.6,416.4,413.3z"></path>
		<path fill="#1D1D1D" d="M412.6,407.4c-0.1,0.2-0.3,0.3-0.5,0.3C412.3,407.7,412.5,407.6,412.6,407.4z"></path>
		<path fill="#1D1D1D" d="M394.3,414.1l12.5-8.8l-2.8-1.4c-0.5-0.3-1.1-0.2-1.5,0.2l-9.7,8.8L394.3,414.1z"></path>
		<polygon fill="#2F2F2F" points="392.8,412.9 390.4,412.3 399.4,402.9 403.8,403.8   "></polygon>
		<path fill="#E0E1DF" d="M401.5,412c0.7-1,1.1-2,2.3-2.5c1.1-0.5,2.1,0,3.3,0.1c1.4,0,1.5-1.9,2.7-2.3c0.1,0.1,0.7,0.3,1,0.4    c-1.3,0.9-1.8,3.1-3.3,3c-1.8-0.1-3.4-0.2-4,1.2c-0.8,1.9-2.4,3-4.6,3.9c-1,0.4-1.7,0.8-2.7,0.9c0.1-0.4-0.5-1.2-0.6-1.6    C397.7,415.1,400.2,413.9,401.5,412z"></path>
		<path fill="#2F2F2F" d="M395.9,415.3c3.4,2.3,4.4,1.3-5.7,2c-5,0.3-9.9-0.5-9.3-1.5c0.6-1.1,2.6-0.2,7.6-3    C392.3,410.7,394.8,414.6,395.9,415.3z"></path>
		
			<rect x="397.6" y="404.8" transform="matrix(0.9786 -0.2058 0.2058 0.9786 -75.1721 90.5943)" fill="#E0E1DF" width="0.6" height="3.7"></rect>
		
			<rect x="395.4" y="406.3" transform="matrix(0.9868 -0.1622 0.1622 0.9868 -60.6682 69.9464)" fill="#E0E1DF" width="5.4" height="0.6"></rect>
		
			<rect x="395.4" y="407.3" transform="matrix(0.9345 -0.356 0.356 0.9345 -119.6179 167.6501)" fill="#E0E1DF" width="0.6" height="3.1"></rect>
		
			<rect x="392.9" y="408.7" transform="matrix(0.9791 -0.2033 0.2033 0.9791 -74.8857 88.9374)" fill="#E0E1DF" width="5.3" height="0.6"></rect>
		
			<rect x="392.7" y="409.6" transform="matrix(0.9658 -0.2594 0.2594 0.9658 -93.1752 116.0372)" fill="#E0E1DF" width="0.6" height="2.8"></rect>
		
			<rect x="391.2" y="410.8" transform="matrix(0.98 -0.1991 0.1991 0.98 -73.9885 86.5582)" fill="#E0E1DF" width="4.4" height="0.6"></rect>
		<path fill="none" stroke="#E0E1DF" stroke-miterlimit="10" d="M401.3,405.7"></path>
		<path fill="none" stroke="#E0E1DF" stroke-miterlimit="10" d="M397.8,404.6"></path>
	</g>
	<path fill="#FBFAFB" d="M172,112.3c5.8,6.1,9.8,14,14.8,20.8c4.9,6.7,9.9,13.3,15.2,19.7c9.7,11.7,20.3,22.7,32.2,32.2   c11.9,9.5,24.9,17.7,38.2,24.9c20.2,10.9,41.4,19.5,63,27.1v-84.4c-5.6-2.9-11.3-5.8-17-8.6c-15.1-7.5-30.1-15.3-44.8-23.5   c-28.4-15.8-56.3-33.8-78.9-57.4c-13,1.2-23.3,12.3-23.3,25.6v23.2C171.6,111.9,171.8,112.1,172,112.3z"></path>
	<path fill="#FBFAFB" d="M234.4,329.3h26.8c-5.9-3.2-11.6-6.6-17.2-10.3c-28.8-18.8-55.2-44-72-74.4v24.5   C188.6,293.4,210.6,312.6,234.4,329.3z"></path>
	<g>
		<polygon fill="#242326" points="373.9,250.8 318.5,259.2 316.9,254.7 373.9,246.1   "></polygon>
		<g>
			<g>
				<polygon fill="#242326" points="318.5,259.2 286.5,203.3 286.8,201.7 325.4,227.3     "></polygon>
				<polygon fill="#2D2C2F" points="319.5,258.9 286.8,201.7 306.2,194 326.5,227     "></polygon>
				<polygon fill="#2D2C2F" points="373.9,246.6 318.4,255 326.5,227 362.3,221.5     "></polygon>
				<polygon fill="#E6E6E6" points="318,253 289.8,203.6 306.3,197.3 325,227.2     "></polygon>
				<path fill="#F2F2F2" d="M319.7,218.7c0.8,5.6,1.9,11.2,3.1,16.7l2.2-8.2L319.7,218.7z"></path>
			</g>
			<path fill="#F2F2F2" d="M312.7,235.6c-2.3-12.7-5.1-25.3-6.8-38.2l-2.9,1.1c1.5,12.2,2.9,24.5,4.8,36.7l6.9,12.1     C314.1,243.3,313.4,239.4,312.7,235.6z"></path>
		</g>
	</g>
	<path fill="#AD5B51" d="M380.9,231.9c0,1.1-7,1.8-9.3,2.6c-5.4,1.8-9-4.2-6.4-3.1c2.8,1.3,3.9-1,6.3-0.8S380.9,230.8,380.9,231.9z"></path>
	<path opacity="0.22" fill="#73737F" d="M162.3,251.9h97.3c13.5-18.5,0,0,13.5-18.5l0.8-19.1l-84.6-0.2c-2.8,2.5-21.7,15.6-27,17.3   V251.9z"></path>
	<path fill="#FFFFFF" d="M260,247.2l-113.7-0.5v-32.6h127.6l-0.8,19.3C270.8,235.9,263.3,243.7,260,247.2z"></path>
	<rect x="153.9" y="223.7" fill="#F9EDEB" width="27.5" height="5.6"></rect>
	<rect x="153.9" y="234.2" fill="#F9EDEB" width="27.5" height="5.6"></rect>
	<path fill="#2C2C41" d="M106.4,304c-3.3,3.9,7.1,8.7,8.1,13.7l8.6,85.6c1.3,5.2,0.2,11,5.5,11.5l3.8-0.7c4.5-2.5,7.8-5.4,8.2-10.1   l8-92.5c0.4-4.7-3.1-8.9-7.8-9.3l-24.7-3.9C113.8,298.1,108.8,301,106.4,304z"></path>
	<path fill="#2C2C41" d="M39.1,334.7c4,3.1,16.8,3.4,21.8,2.2l72.5-19.7c5.1-1.4,14.6,3,14.9-2.3l0.4-4.4c0.2-1.9-0.1-3.7-0.8-5.4   c-0.7-1.7-1.7-3.2-3-4.5c-1.9-1.9-4.1-3.1-6.9-3.3l-92.7-5.1c-4.7-0.3-8.8,3.4-9,8.1l-3.1,24.8C33,327.5,36.1,332.3,39.1,334.7z"></path>
	<g>
		<g>
			<path fill="#EBC5BF" d="M76.5,260.8c0,4,7.3,8.4,18.8,5.4c10.5-2.7,60.9-11.3,62-15.2c1.8-6.4-51.1,0.7-61.9,0.7     S76.5,256.8,76.5,260.8z"></path>
			<path fill="#EBC5BF" d="M92.8,263.6c10.5-2.7,67.5-6.8,64.7-15.7c0,0-55.6-2.9-66.4-3.2"></path>
			
				<rect x="69" y="229.3" transform="matrix(-0.8706 0.4919 -0.4919 -0.8706 270.0768 415.6716)" fill="#FD5652" width="22.8" height="28.2"></rect>
			<path fill="#FD5652" d="M75,250.6c3.4,7,5.2,13.2,4.1,13.8s-4.9-4.7-8.3-11.7c-3.4-7-8.4-15.4-7.3-16     C64.7,236.1,71.6,243.6,75,250.6z"></path>
		</g>
		<g>
			<path fill="#EBC5BF" d="M137.5,249v2.7l11.3,2.5c0.4,0,9.5-2.5,9.8-2.6c0.4-0.1,0.8-0.3,1.2-0.4l4.6-2.3c0,0,0,0,0,0     c0.5-0.2,1.2-0.5,1.7-0.6c0.7-0.2,1.4-0.5,2-1c0.2-0.1,0.4-0.3,0.5-0.4c10.6-8.7,14.1-4.6,14.5-7.1c0.2-1.3-9.8,0.2-14.2,0.5     c-5.5,0.3-8.1,2.5-11.3,4.2L137.5,249z"></path>
			<polygon fill="#EBC5BF" points="125.8,258.8 137.8,257.4 156.5,245 129.2,246.5    "></polygon>
		</g>
	</g>
	<path fill="#EFD1CC" d="M88.9,270.1c-1.7,3.5,1.7,11.1,11.2,14.4c8.7,3,48.6,21.4,51,18.6c4-4.7-37.1-25.6-44.8-31.2   C98.6,266.4,90.6,266.7,88.9,270.1z"></path>
	<polygon fill="#EFD1CC" points="99.4,280.9 106.2,263.6 95.3,243.7 76.8,257.1  "></polygon>
	<path fill="#EBC5BF" d="M90.2,269.8c3.4,6.9,11.2,14.7,9.9,14.7c-2.9,0-10.2-5.9-13.9-12.2c-4-6.7-10.1-14.4-9-15.1   C78.3,256.6,86.8,262.8,90.2,269.8z"></path>
	<g>
		<path fill="#EFD1CC" d="M126.1,178.2l-15.9,1.8c-2.6,0.3-5-1.6-5.3-4.2l-2.3-19.7c-0.3-2.6,1.6-5,4.2-5.3l7-0.8    c7.5-0.9,14.4,4.6,15.2,12l1.2,10.8C130.6,175.5,128.7,177.9,126.1,178.2z"></path>
		<path fill="#EFD1CC" d="M96,160.5c-1.3,9.8,4.9,18.8,13.8,19.9c8.9,1.2,14.7-4.2,18.5-15.7c1.9-5.7-0.4-13.8-14.5-15.5    C104.8,148.1,97.3,150.6,96,160.5z"></path>
		<path fill="#403939" d="M104.3,169c1.6-3.4,4.2-6.3,7.8-7.9c4.3-2,8.8-1.8,13.3-2.9c0.7-0.2,1.4-0.4,2-0.7    c-3.3-5.8-9.8-9.4-16.9-8.6c-4.7,0.5-8,4.8-7.5,9.4L104.3,169z"></path>
		<path fill="#403939" d="M112.1,161.5c4.3-2,8.8-1.9,13.4-2.9c1-0.2,2.1-0.1,3-0.5c-1.5-4.5-6.4-8.4-14.6-9.1    c-9-0.8-16.2,1.1-17.8,10.9c-1.1,6.7,1,14.2,6.3,17.9C102.4,171.1,105.6,164.5,112.1,161.5z"></path>
		<path fill="#403939" d="M126.4,162.6c-2.7-1.4-5.7-4.6-8.1-7.3c1.4-1.4,3.2-2.3,5.1-2.4C124.6,156.1,125.5,159.4,126.4,162.6z"></path>
		<path fill="#403939" d="M109.9,164c2.8-1.1,6.2-4,8.8-6.4c-1.2-1.6-2.9-2.6-4.8-3C112.4,157.7,111.1,160.9,109.9,164z"></path>
		<path fill="#403939" d="M114.7,163.1c2.3-2,4.4-5.9,6-9.1c-1.7-1.1-3.7-1.4-5.6-1.1C114.8,156.3,114.7,159.7,114.7,163.1z"></path>
		<path fill="#403939" d="M119.6,163.4c1.5-2.6,3.4-7,3.9-10.5c-1.9-0.5-6.5,0.1-8.2,1C116.1,157.2,118.6,160.1,119.6,163.4z"></path>
		<path fill="#403939" d="M129.2,162.7c0.3-1.2,0.1-5.2-2.6-8.1c-3.3-3.6-3.1-1.1-3.9,0.4c-0.3,0.5-0.5,1.1-0.8,1.7c0,0,0,0,0,0    C124.5,158.9,126.5,160.6,129.2,162.7z"></path>
	</g>
	<polygon fill="#EFD1CC" points="87.6,206.6 81.9,188 108.5,175 108.3,192.3  "></polygon>
	<path fill="#FFFFFF" d="M69.7,312.2c-4.5,3.5-8.7,7.4-12.8,11.5c-1.9,1-3.8,2-5.6,3c-3,0.6-6,1.2-9,1.7c-3.2,0.5-6.6,1-9.5,2.5   c-13.2-18.7-18.8-59.6-8.2-91.2c13.3-39.5,59.2-64.7,67.3-44.6c12,29.8,3.6,36.7-9.7,76.2C77.2,286.1,73.5,300.4,69.7,312.2z"></path>
	<path fill="#FFFFFF" d="M97,196.2c2.4,7.7,3.5,12.4,1.4,10.8c-8.3-6.4-5.3,1.2-9.6-5.9c-4.3-7.1-12.9-13.4-1.3-16.7   C90,183.7,94.5,188.3,97,196.2z"></path>
	<path fill="#FFFFFF" d="M69,263.9c1.5,3.6,10,3.4,18.9-0.4c8.9-3.8,25.2-2.9,18.7-14.7c-1.9-3.4-15.4-2.1-24.3,1.7   C73.4,254.4,67.5,260.4,69,263.9z"></path>
	<polygon fill="#FFFFFF" points="71.7,259.6 105.1,252.6 94.9,203.7 74.8,202.6  "></polygon>
	<path fill="#FFFFFF" d="M73.9,312.8c-9.7,9.3-38.9,30.5-43.8,24c-4.9-6.6,15.3-39.7,26.1-47.7c10.8-8-2.5-27.7,34.5-3.1   C97.5,290.5,85.5,301.7,73.9,312.8z"></path>
	<path fill="#403939" d="M106.3,182.3c0-0.4,0-0.8,0.1-1.1c0.1-1.9,0.9-3.8,2.4-4.5c0,0,0,0,0,0c0.5,0.9,1,1.8,1.5,2.7   c0.7-0.9,1.4-1.8,2.1-2.7c-0.5-0.6-0.8-1.1-0.8-1.1c-5.7-10-5-8.3-6.2-10.3c-0.5-0.8,0.1,0.6,0.5,1.2c-3.3,0.4-6.6-0.1-9.7,0.8   c0.4,3.1,0.7,6,4.5,14.5c0,0.1,0.1,0.2,0.1,0.3c1.1,1.9,1.4,2.1,2,4.4c0.6,0.1,1.6,0.2,2.2,0.2c0.8,0,1.8,1.9,2.5,1.8   c-0.4-1-0.7-2-0.8-3c0-0.1,0-0.3-0.1-0.4C106.5,184.1,106.4,183.2,106.3,182.3z"></path>
	<path fill="#EFD1CC" d="M105.8,194.2l14.6,1.3c0.2,0,0.8-0.2,1-0.3c5-2,9.8-4.5,9.4-9.8l-1.7-22.3c0-0.5-0.5-0.9-1.1-0.8l-23.5,3.1   L105.8,194.2z"></path>
	<g>
		<path fill="#EBC5BF" d="M97.3,197.9c0-0.1,0-0.2-0.1-0.4c-0.2-1.3-0.2-1.3-0.2-1.3c2.7-1.8,2.1-1.7,5.4-2.4c1-0.2,2.2-0.3,3.5-0.3    c0.2,0-0.2,0.7-0.3,0.8l-7.9,5.4L97.3,197.9z"></path>
		<path fill="#EBC5BF" d="M112.6,194.8l-7-0.6l0-0.8C107.9,193.4,110.4,193.9,112.6,194.8z"></path>
	</g>
	<path fill="#403939" d="M118.7,181.8c-8,0.4-11.2-12.8-14.1-16.5c-2.8,0.8-0.4,6-0.7,6.3l3.5,6.1c1.3,3.1,0.6,6.7,1.3,10   c0.5,2.5,1.3,4.4,2.4,6.7c1,0.5,3.3,1.4,4.5,1.4l0,0c3.8,0.1,12.2-0.5,14.5-4.9c0.7-1.3,0.9-3.7,0.9-4.2l-0.4-5.8   C126.2,181,125.7,181.5,118.7,181.8z"></path>
	
		<ellipse transform="matrix(0.8434 -0.5374 0.5374 0.8434 -78.368 83.791)" fill="#EFD1CC" cx="104.5" cy="176.3" rx="3.1" ry="4.2"></ellipse>
	<path fill="#EFD1CC" d="M128.4,181l2.8-4.9c0.1-0.2,0.2-0.4,0.3-0.6c0.2-0.7,0-1.5-0.4-2.2l-0.8-1.2l-9.7-1L128.4,181z"></path>
	<g>
		<path fill="#FFE2E1" d="M77.7,249.6C77.7,249.6,77.7,249.7,77.7,249.6c0,4.9-6.6,11.1-0.3,14.6c-1.6,0.5-2.7,3.7-3.6,3.1    c-1.3-0.9-3.8-7.2-3.4-10.3c0.3-2.7,5.6-4.4,6-7c0.1,0,0.2-0.1,0.3-0.1C77.1,249.9,77.4,249.7,77.7,249.6z"></path>
		<path fill="#FFE2E1" d="M77.1,241.5c0.6,2.7,0.6,5.6,0.6,8.2c0,2.3-1.8,3.9-1.9,6.2l-5.4,1.2c1.2-3.6,6.3-6.9,6.5-10.6    C77,244.8,77.1,243.2,77.1,241.5z"></path>
	</g>
	<path fill="#FFE2E1" d="M75.8,268.9l6.3,2.4l3.2-6.8l-7.6-0.7c-0.8-0.1-1.6-0.4-2.2-0.9l-4.1-4.6c-0.3-0.4-1-0.1-0.9,0.4   C70.9,261.8,71.9,266.9,75.8,268.9z"></path>
	<path fill="#FFE2E1" d="M68.2,268.6c-0.5,1.3,3.1,0.7,6.5,2.2c3.5,1.5,7.5,0.7,7.6,0.4c0.1-0.3-3.7-0.9-7.4-1.5   C71.2,269.1,68.3,268.4,68.2,268.6z"></path>
	<path opacity="0.22" fill="#73737F" d="M162.3,168.8h81.5v-28.5c0-13.6-11-24.6-24.6-24.7l-34.5-0.2c-1.9,3.5-18.8,20.9-22.5,23.2   L162.3,168.8z"></path>
	<path fill="#FFE2E1" d="M80.3,270.7c3.2-2.4,2,0.3-0.6,8.4c-0.3,0-0.5,0.1-0.8,0.2c0-0.2-0.1-0.4-0.1-0.6c-0.8-4.4-12-2.6-13.3-3.1   C64.1,275,77.5,272.7,80.3,270.7z"></path>
	<path fill="#FFE2E1" d="M71.3,281.6c0.2,0.5,2.6,1,4.7,0.3c2.1-0.7,3.9-2.9,3.8-3.4s-1.7,1.9-3.9,2.6   C73.7,281.8,71.1,281.1,71.3,281.6z"></path>
	<path fill="#FFE2E1" d="M22.2,296.2c1.2,3,2.4,6.1,4.1,8.9c1.8,2.8,4,5.3,6.1,7.9c2,2.6,4.7,5.6,4.7,9c0,2.4-0.6,5.1-1.6,7.5   c-1,0.3-2,0.7-2.9,1.2c-6.7-9.5-12.1-27.7-13.2-45.1C20.2,288.1,21.3,293.9,22.2,296.2z"></path>
	<path fill="#FFE2E1" d="M30.1,337c-0.1-0.1-0.2-0.2-0.2-0.3c-2.2-2.9,0.6-11.1,5.3-20c1.1,1.6,1.9,3.4,1.9,5.3   C37,327.3,35.3,333.2,30.1,337z"></path>
	<path fill="#EBC5BF" d="M88.1,269.8c-2.3,3.1,5.5,12.8,12,15.1c9.1,3.2,42.9,18,23,8.1c-6.9-3.4-19.6-8.4-27.3-14   C88,273.4,91.2,265.6,88.1,269.8z"></path>
	<path fill="#EFD1CC" d="M99.4,280.9c8.7,3,51.4,28.8,53.2,19.6c0,0-38.8-31.1-46.4-36.9"></path>
	<g>
		<path fill="#EFD1CC" d="M132.8,289.4l-2.1,6.9l13.6,5.4c0.3,0.2,0.5,0.4,0.8,0.6c0.3,0.2,0.7,0.3,1,0.3l2.3,0.5c0,0-2.5-0.8,0,0    c0.9,0.3,1.2,0.3,2.4,0.5c1.8,0.3,3.8,1.3,4.6,0.7c0,0,10.9,5.3,12.5,3.9c0.9-0.7-7.3-6.4-10.4-8.9c-3.8-3.1-6.7-2.9-9.7-3.5    L132.8,289.4z"></path>
	</g>
	<g>
		<path fill="#565667" d="M138.4,408.5c-0.2-0.4-0.2-0.8-0.3-1.2c-0.3-1.9,1.3-2.6,2.8-2.6c1,0,2.5,0.6,3.1,1.3    C142.2,406.8,140.1,407.7,138.4,408.5z"></path>
		<path fill="#E0E1DF" d="M125,425.7l40.2,1.8c0.8,0,6.8-1.3,6.8-2l-0.3-3.6c0-0.2-0.6-0.8-0.8-0.7c-1.7,1-13.5,2.6-17.9,2.6    l-10.2,0c-1.5,0-17-1.3-20.3-2.1c-0.3-0.1-0.5,0.1-0.5,0.3l-0.1,2.4C122,425,124.2,425.7,125,425.7z"></path>
		<path fill="#E0E1DF" d="M129.1,425.9c-17-2.6,4.6,1.8,14.9,2.8c10.5,1,28-1.9,28-3.2c0-1.4-13.1-0.7-23.6-1    S130.6,426.1,129.1,425.9z"></path>
		<path fill="#565667" d="M122.5,421.9l13.1,1.2c0.3,0,14.5,1.4,13.4,0.4c0,0,0,0,0,0l3.3-3.6c0-0.1,0-0.1,0-0.1l-18-10    c-0.5-0.3-1.1-0.1-1.3,0.4c-0.9,1.9-3.7,3.1-5.1,3.2l0,0.1l-5.2,6.9c-0.1,0.1-0.2,0.2-0.3,0.3C122.1,421,121.7,421.3,122.5,421.9z    "></path>
		<path fill="#565667" d="M122.5,420.7c0.3,0.8,0.9,1.3,1.4,1.3c1,0,6.9-7.4,4.2-8.6c0.1-0.1,0.1-0.1,0-0.1c-0.3-0.1-1-0.2-1.2-0.4    c0,0-0.1-0.1-0.1-0.1c-0.2-0.3-0.3-0.6-0.4-1c-0.1-0.5-0.2-1.2-0.2-1.9c-0.1-0.1-0.1-0.1-0.3-0.1c-1,0-2.5,3.9-3.4,7.1    C122.1,418.6,122.1,419.8,122.5,420.7z"></path>
		<path fill="#1D1D1D" d="M126.8,412.9c0.2,0.2,0.4,0.3,0.8,0.4C127.3,413.2,127,413.1,126.8,412.9z"></path>
		<path fill="#565667" d="M152.4,419.8l-18-10.1l3.6-2c0.6-0.4,1.5-0.3,2.1,0.1l14.2,10.5L152.4,419.8z"></path>
		<polygon fill="#565667" points="154.2,418.3 157.4,417.2 144,406 138.1,407.6   "></polygon>
		<path fill="#565667" d="M150.4,421.6c-4.3,3.2-5.8,2,8,2.1c6.8,0,13.2-1.5,12.4-2.7c-0.9-1.4-3.5,0-10.7-3.2    C154.6,415.4,151.7,420.6,150.4,421.6z"></path>
		<path fill="none" stroke="#E0E1DF" stroke-miterlimit="10" d="M146.3,413"></path>
		<path fill="none" stroke="#E0E1DF" stroke-miterlimit="10" d="M146.8,408.3"></path>
		<path fill="none" stroke="#E0E1DF" stroke-miterlimit="10" d="M149.9,411"></path>
		<path fill="none" stroke="#E0E1DF" stroke-miterlimit="10" d="M142.6,410.3"></path>
		<path fill="none" stroke="#E0E1DF" stroke-miterlimit="10" d="M149.3,415.1"></path>
		<path fill="none" stroke="#E0E1DF" stroke-miterlimit="10" d="M150.4,411.4"></path>
		<path fill="none" stroke="#E0E1DF" stroke-miterlimit="10" d="M153.6,414"></path>
		<path fill="none" stroke="#E0E1DF" stroke-miterlimit="10" d="M146.5,413.1"></path>
		<path fill="none" stroke="#E0E1DF" stroke-miterlimit="10" d="M153.4,417.6"></path>
		<path fill="none" stroke="#E0E1DF" stroke-miterlimit="10" d="M154,414.1"></path>
		<path fill="none" stroke="#E0E1DF" stroke-miterlimit="10" d="M156.2,416.4"></path>
		<path fill="none" stroke="#E0E1DF" stroke-miterlimit="10" d="M150.3,415.7"></path>
		<path fill="none" stroke="#E0E1DF" stroke-miterlimit="10" d="M141.9,409.8"></path>
		<path fill="none" stroke="#E0E1DF" stroke-miterlimit="10" d="M146.4,408"></path>
	</g>
	<path fill="#EFD1CC" d="M148.4,300.4c0.8,0.1,4.7,2.1,6.3,2.7c3.8,1.4,3.5,6.1,2.2,4.6c-1.5-1.6-2.6-1.2-3.9-2.4   C151.8,304.1,126.7,296.1,148.4,300.4z"></path>
	<path fill="#D14C5E" d="M243.8,165H137.2V95.3l77.3-0.4c2.5,4.6,24.5,27.5,29.4,30.5L243.8,165z"></path>
	<polygon fill="#F6DBDF" points="229.2,110.1 243.9,125.4 213.9,124.8 214.5,94.9  "></polygon>
	<rect x="149.4" y="109.8" fill="#FFFFFF" width="55.9" height="0.6"></rect>
	<rect x="149.4" y="119" fill="#FFFFFF" width="55.9" height="0.6"></rect>
	<rect x="149.4" y="128.2" fill="#FFFFFF" width="55.9" height="0.6"></rect>
	<rect x="149.4" y="138.6" fill="#FFFFFF" width="79.5" height="0.6"></rect>
	<rect x="149.4" y="147.6" fill="#FFFFFF" width="79.5" height="0.6"></rect>
	<path fill="#D14C5E" d="M272.1,314.7h76.7v-50.1l-55.6-0.3c-1.8,3.3-17.6,19.8-21.1,21.9L272.1,314.7z"></path>
	<polygon fill="#F6DBDF" points="282.7,275.2 272.1,286.1 293.6,285.7 293.2,264.2  "></polygon>
	<rect x="299.9" y="274.8" fill="#D9D8DF" width="40.2" height="0.6"></rect>
	<rect x="299.9" y="281.5" fill="#D9D8DF" width="40.2" height="0.6"></rect>
	<rect x="299.9" y="288.1" fill="#D9D8DF" width="40.2" height="0.6"></rect>
	<rect x="282.9" y="295.6" fill="#D9D8DF" width="57.2" height="0.6"></rect>
	<rect x="282.9" y="302" fill="#D9D8DF" width="57.2" height="0.6"></rect>
	<rect x="185.8" y="226.8" fill="#D9D8DF" width="78.7" height="0.6"></rect>
	<rect x="185.8" y="236.3" fill="#D9D8DF" width="78.7" height="0.6"></rect>
	<polygon fill="#F6DBDF" points="266.6,240.3 273.1,233.4 259.7,233.8 260,247.2  "></polygon>
	<g>
		
			<rect x="227.6" y="423.3" transform="matrix(0.9998 -1.882812e-02 1.882812e-02 0.9998 -7.9606 4.5121)" fill="#B3B3B3" width="16.1" height="3.5"></rect>
	</g>
	<path fill="#B3B3B3" d="M210.1,335.5l-1,0.6c-0.6,0.4-1.3,0.2-1.7-0.4l-4.7-7.5c-0.4-0.6-0.2-1.3,0.4-1.7l1-0.6   c0.6-0.4,1.3-0.2,1.7,0.4l4.7,7.5C210.8,334.4,210.7,335.2,210.1,335.5z"></path>
	<path fill="#B3B3B3" d="M262.1,411.4l-0.9,0.6c-0.5,0.3-1.2,0.2-1.5-0.3l-5.2-8.3c-0.3-0.5-0.2-1.2,0.3-1.5l0.9-0.6   c0.5-0.3,1.2-0.2,1.5,0.3l5.2,8.3C262.8,410.4,262.7,411.1,262.1,411.4z"></path>
	<path fill="#F2F2F2" d="M274,375.3c-3.2,22.8-24.3,38.7-47.1,35.4c-9.3-1.3-17.4-5.6-23.6-11.7c-2.7-2.6-4.9-5.6-6.8-8.9   c-4.4-7.8-6.4-17-5.1-26.5c3.2-22.8,24.3-38.7,47.1-35.4C261.3,331.4,277.2,352.5,274,375.3z"></path>
	<path fill="#E6E6E6" d="M263.7,388.2c4.7,2.4-4.7,11.7-14.2,15c-9.6,3.3-10,7.5-11.7,2.5c-1.7-5-0.9-8.3,8.6-11.5   S245.2,378.9,263.7,388.2z"></path>
	<path fill="#E6E6E6" d="M217,336.8c2.5,5.5,2.2,2.9,2.3,5c6-0.4,8.6-3.9,10.6-4.5C254.3,330.9,213.5,329.3,217,336.8z"></path>
	<path fill="#E6E6E6" d="M268.9,370.5c-6.1,1.3-5.4,8.1-10.9,10.4c-4.4,1.9,1.5,3.2,3,6.2c4.4,9.1,4,1.2,5.9-4.4   S272.1,369.8,268.9,370.5z"></path>
	<path fill="#E6E6E6" d="M221.6,342.3c0.2-0.4,0.7-2.1,0.6-2.7c-1-1.2-2.5-2.2-4-1.3c-1.3,0.7-2.2,2.6-3.3,3.6   c-2.8,2.5-6.2,2.2-9.7,2.3c-1.5,0.1-3.1,0.2-4.3,1.3c-0.9,0.8-1.5,2-1.9,3.2c-0.9,2.6-1.7,5.7-1.3,8.4c0.4,3,2.1,5.7,4.6,7.4   c1.1,0.8,2.9,1.8,4.3,1.8c1,0,1.5-0.5,2-1.3c1.4-1.9,2.1-4.3,4-5.8c1.1-0.8,2.4-1.3,3.7-1.7c1.1-0.4,2.4-0.7,3.2-1.6   c1.1-1.1,0-2.8-0.3-4.1c-0.4-1.6-0.3-3.3,0.2-4.9C220,345.2,221,343.8,221.6,342.3z"></path>
	<path fill="#E6E6E6" d="M212.4,362.7c-0.9,3.1-3.3,6.1-5.8,7.6c-1.8,1.1-4.3,1.5-4.1,3.9c0.3,2.8,1.6,4.4,4.2,4.7   c4.8,0.6,12.4,0.4,13.5-5.6c0.5-2.9-0.9-6.1-2.6-8.3C216.1,363,214.4,362.4,212.4,362.7z"></path>
	<path fill="#E6E6E6" d="M233.9,399.6c-0.3-1.1-0.9-1.6-1.8-2.3c-0.8,0.4-1.5,1.4-2,2c-0.8,0.9-1.8,1.6-2.1,2.8   c-0.6,2.4-0.1,4.8,2.5,5.6c1.2,0.4,2.9,0.5,3.8-0.6c1.1-1.3,1.1-2.4,0.6-3.9C234.5,402,234.3,400.8,233.9,399.6z"></path>
	<path fill="#E6E6E6" d="M248.5,337.2c-0.4-1.1-0.4-2.1-0.1-3.2c0.1-0.6,0.6-1.8,0.6-2.9c-0.9-0.4-1.9-0.8-2.8-1.2   c-1.4,0.7-2.2,2.3-3,3.8c-1.2,2.3-2.6,4.1-5.2,4.8c-1.6,0.5-3.1,0.8-4.6,1.6c-1.5,0.8-2.8,1.9-4.1,3c-1.3,1-2.5,2.1-3.7,3.2   c-0.6,0.6-2.4,1.8-2.1,2.8c0.4,1.2,2.3,1.5,3.4,1.7c1.5,0.2,3,0.2,4.5,0c2.9-0.4,5.7-1.3,8.5-1.9c2.9-0.7,5.3-2.2,7.9-3.6   c0.9-0.5,1.8-1,2.5-1.6c0.9-0.9,0.9-1.6,0.4-2.8C250,339.7,249,338.6,248.5,337.2z"></path>
	<path fill="#E6E6E6" d="M248.4,386.1c0.4,0.3,0.2,6-2.3,5.3c-1.9-0.5-8.2,3.6-5.8-0.2c1.7-2.6,2.1-0.7,4.3-2.1   C246.9,387.7,245.6,383.9,248.4,386.1z"></path>
	<path fill="#E6E6E6" d="M211.5,393.1c-1.3,1-2.5,2.1-3.9,3.1c-1.3,1-2.7,2.1-4.2,2.8c0,0-0.1,0-0.1,0.1c-2.7-2.6-4.9-5.6-6.8-8.9   c0.3-0.1,0.5-0.1,0.8-0.2c2.9-0.5,5.7-1.3,8.6-1.6c1.5-0.1,3.1-0.1,4.5,0.2c1,0.2,3,0.6,3.3,1.8C214,391.5,212.2,392.6,211.5,393.1   z"></path>
	<path fill="#B3B3B3" d="M226.8,418.3c-3.5,0-7-0.4-10.3-1.2c-10.9-2.7-20.2-9.8-26.3-20.1c-6.2-10.4-8.6-23.3-6.5-35.2   c2.3-13,9.7-24.1,20.9-31.1l0.7,1.1c-10.9,6.8-18.1,17.5-20.3,30.2c-2,11.6,0.3,24.1,6.4,34.3c5.9,9.9,15,16.9,25.5,19.5   c12.2,3,26.1,0.3,40.4-7.8l0.6,1.1C247.1,415.2,236.5,418.3,226.8,418.3z"></path>
	<g>
		
			<rect x="230.8" y="339.6" transform="matrix(-0.9981 6.118332e-02 -6.118332e-02 -0.9981 482.9867 673.4306)" fill="#B3B3B3" width="0.7" height="9.1"></rect>
		<path fill="#B3B3B3" d="M237.3,343.5l-6.4,0.4l-0.2-3.9l6.1-0.4c0.6,0-1.3,1.4-1.3,2l0,0C235.5,342.1,237.7,343.5,237.3,343.5z"></path>
	</g>
	<g>
		
			<rect x="207.7" y="382.7" transform="matrix(-0.9901 -0.1402 0.1402 -0.9901 359.6581 799.7195)" fill="#B3B3B3" width="0.7" height="9.1"></rect>
		<path fill="#B3B3B3" d="M214.1,387.8l-6.4-0.9l0.5-3.8l6.1,0.9c0.6,0.1-1.6,1.1-1.7,1.7l0,0C212.6,386.1,214.5,387.9,214.1,387.8z    "></path>
	</g>
	<g>
		
			<rect x="260.3" y="373.6" transform="matrix(-0.9854 0.1705 -0.1705 -0.9854 581.8984 706.2871)" fill="#B3B3B3" width="0.7" height="9.1"></rect>
		<path fill="#B3B3B3" d="M266.6,376.9l-6.4,1.1l-0.7-3.8l6-1c0.6-0.1-1.2,1.6-1,2.1l0,0C264.7,375.7,267,376.8,266.6,376.9z"></path>
	</g>
	<rect x="234.6" y="411.2" fill="#B3B3B3" width="1.8" height="14.1"></rect>
	<path fill="#E6E6E6" d="M363.4,123.3h-50.5c0,0-0.1,0-0.1-0.1l0-29.8c5.9-5.8,5.9-5.8,11.7-11.7l38.9-0.4c0.5,0,0.9,0.4,0.9,0.9   v40.2C364.3,122.9,363.9,123.3,363.4,123.3z"></path>
	<g>
		<path fill="#E6E6E6" d="M364.6,40.7L364.6,40.7c0,0.3-0.3,0.6-0.6,0.6h-2.5c-0.3,0-0.6,0.3-0.6,0.6v2.6c0,0.3-0.3,0.6-0.6,0.6h0    c-0.3,0-0.6-0.3-0.6-0.6v-2.6c0-0.3-0.3-0.6-0.6-0.6h-2.5c-0.3,0-0.6-0.3-0.6-0.6l0,0c0-0.3,0.3-0.6,0.6-0.6h2.5    c0.3,0,0.6-0.3,0.6-0.6V37c0-0.3,0.3-0.6,0.6-0.6h0c0.3,0,0.6,0.3,0.6,0.6v2.5c0,0.3,0.3,0.6,0.6,0.6h2.5    C364.3,40.1,364.6,40.4,364.6,40.7z"></path>
	</g>
	<g>
		<path fill="#E6E6E6" d="M389,80.4h-16.6c-0.6,0-1.1-0.5-1.1-1.1v-1c0-0.6,0.5-1.1,1.1-1.1H389c0.6,0,1.1,0.5,1.1,1.1v1    C390.1,79.9,389.6,80.4,389,80.4z"></path>
		<circle fill="#E6E6E6" cx="380.7" cy="72.8" r="1.9"></circle>
		<circle fill="#E6E6E6" cx="380.7" cy="84.8" r="1.9"></circle>
	</g>
	<polygon fill="#F6DBDF" points="318.7,87.5 324.5,81.7 324.5,93.4 312.8,93.3  "></polygon>
	<rect x="321.9" y="96.2" fill="#FFFFFF" width="36.1" height="0.6"></rect>
	<rect x="321.9" y="101.9" fill="#FFFFFF" width="36.1" height="0.6"></rect>
	<rect x="321.9" y="107.7" fill="#FFFFFF" width="36.1" height="0.6"></rect>
	<rect x="321.9" y="113.4" fill="#FFFFFF" width="36.1" height="0.6"></rect>
	<g>
		<path fill="#E6E6E6" d="M391.3,55.4L391.3,55.4c-0.3,0.3-0.9,0.3-1.2,0l-2.4-2.5c-0.3-0.3-0.8-0.3-1.2,0l-2.5,2.4    c-0.3,0.3-0.9,0.3-1.2,0v0c-0.3-0.3-0.3-0.9,0-1.2l2.5-2.4c0.3-0.3,0.3-0.8,0-1.2l-2.4-2.5c-0.3-0.3-0.3-0.9,0-1.2v0    c0.3-0.3,0.9-0.3,1.2,0l2.4,2.5c0.3,0.3,0.8,0.3,1.2,0l2.5-2.4c0.3-0.3,0.9-0.3,1.2,0l0,0c0.3,0.3,0.3,0.9,0,1.2l-2.5,2.4    c-0.3,0.3-0.3,0.8,0,1.2l2.4,2.5C391.6,54.6,391.6,55.1,391.3,55.4z"></path>
	</g>
	<path fill="#E6E6E6" d="M362.3,63.7h-14.7c-0.4,0-0.7-0.3-0.7-0.7v-0.6c0-0.4,0.3-0.7,0.7-0.7h14.7c0.4,0,0.7,0.3,0.7,0.7v0.6   C363,63.4,362.7,63.7,362.3,63.7z"></path>
	<g>
		<g>
			<g>
				<path fill="#F2F2F2" d="M465.5,367.1c0,2.7-16.1,10.3-33.3,10.3c-17.2,0-33.6-7.5-33.6-10.3s15.8-7.8,33-7.8      C448.9,359.3,465.5,364.3,465.5,367.1z"></path>
				<path fill="#F2F2F2" d="M465.5,367.1l-2.4,10.2c-0.3,1.1-1.6,3-3.1,4.2l-5.9,43c0,2.4-6.4,3.9-21.8,3.9s-21.2-2.1-21.2-4.5      l-6.4-42.3c-1.4-0.9-3.1-2.5-3.3-3.5l-2.6-11h2c0,4.1,14.1,7.3,31.4,7.3c17.3,0,31.4-3.3,31.4-7.3H465.5z"></path>
				<path fill="#4B4A4C" d="M462.6,368.6c0,2.5-14.7,6.8-30.3,6.8c-15.6,0-30.3-4.3-30.3-6.8c0-2.5,14.2-6.1,29.8-6.1      S462.6,366.1,462.6,368.6z"></path>
			</g>
			<path opacity="0.21" fill="#4B4A4C" d="M457.6,376.3c-3.5,3.6-6,8.5-8.6,13c-2.5,4.4-5,8.9-7.9,12.9c-5.3,7.3-11.5,14-18.2,19.7     c-2.2,1.8-4.5,3.5-6.8,5.1c3.4,0.8,8.7,1.4,16.4,1.4c15.4,0,21.8-1.5,21.8-3.9l5.9-43c1.6-1.2,2.9-3.1,3.1-4.2l1.4-5.7     C462,372.7,459.6,374.2,457.6,376.3z"></path>
		</g>
		
			<rect x="431.2" y="333.6" transform="matrix(0.9546 -0.298 0.298 0.9546 -82.1898 144.1239)" fill="#242326" width="0.6" height="16"></rect>
		
			<rect x="423.2" y="346.6" transform="matrix(0.3771 -0.9262 0.9262 0.3771 -47.1414 623.6777)" fill="#333333" width="33.7" height="0.6"></rect>
		<g>
			<path fill="#242326" d="M439.9,301.9c3.4-2.9,7.6-4.7,12-5.1c4.3-0.4,8.2-2.2,11.9-5.2c4.9-4.1,8.7-9,12.6-13.9     c-15.8,0.4-31-0.7-35.2,8.8C439,291.7,426.8,313,439.9,301.9z"></path>
			<path fill="#4B4A4C" d="M434.9,304.3l-0.3-0.1c6.5-13.6,17-20.3,41.9-26.7l0.1,0.3C451.8,284.1,441.3,290.8,434.9,304.3z"></path>
		</g>
		<g>
			<path fill="#4B4A4C" d="M469.7,304.9c-3.4,1.8-5.1,5.6-8.4,7.5c-1.6,0.9-3.7,1.1-5.4,1.9c-1.4,0.7-2.5,1.6-3.3,2.8     c-1,1.5-1.7,3.4-2.3,5.3c-0.8,2.3-1.8,4.4-2.9,6.4c-0.5,0.9-1,1.7-1.5,2.6c11.2,6.8,23.6,2.9,29.3-10.2     c2.3-5.3,0.4-11.4,0.1-17.6C472.1,303.5,472,303.8,469.7,304.9z"></path>
			<path fill="#242326" d="M475.3,308.8c-0.6,2.2-1.2,4.3-2.1,6.3c-1.5,3.7-3.5,6.9-6,9.3c-4.9,4.8-11.3,7.8-17.8,8.8     c10.2,4.1,20.6-0.3,25.7-12c1.8-4.2,1.1-8.8,0.5-13.6C475.5,308,475.4,308.4,475.3,308.8z"></path>
			<path fill="#242326" d="M453.4,328.3c0-2.8,1-4.3,1.9-5.6c1.3-1.9,2.4-3.5,0.4-8.3l0.3-0.1c2,5,0.8,6.8-0.5,8.6     c-0.9,1.3-1.8,2.7-1.8,5.4H453.4z"></path>
			<path fill="#242326" d="M462.6,322.5l-0.3-0.2c3-3.9,2.7-5.2,2.3-7c-0.3-1.3-0.7-3,0.2-6.2l0.3,0.1c-1,3.1-0.6,4.6-0.2,6     C465.4,317.1,465.7,318.6,462.6,322.5z"></path>
			<path fill="#242326" d="M445.9,331.6l-0.1-0.3c14.3-5,25.2-14.6,28.5-21.6c1.1-2.3,1.4-4.4,0.8-6l0.3-0.1     c0.6,1.7,0.3,3.8-0.8,6.2C471.2,316.8,460.3,326.5,445.9,331.6z"></path>
		</g>
		<g>
			<path fill="#4B4A4C" d="M395.4,306.7c-4.2-5.8-3.5-13.6-2.3-20.8c0.8-4.7,1-9.1,0.1-13.9c-0.6-2.9-1.4-5.7-2.1-8.5     c8.9,0.4,17.3,11.8,22.7,19.8c3.7,5.6,6.1,12.4,9.5,18.3c1.6,2.9,3.5,5.4,5.7,7.7c1.3,1.4,4.3,2.6,5.3,4.6c0,0-0.1,0-0.1,0.1     c-4.6,4.8-12.9,3.4-18.4,2.8C408.6,315.9,400.6,313.9,395.4,306.7z"></path>
			<path fill="#242326" d="M397,285.7c5.1,8.6,11.9,14.1,19.1,19.1c5.4,3.8,10.9,7.2,16.4,10.5c-4.8,3.2-12,2.1-16.8,1.5     c-7.2-0.8-15.2-2.9-20.4-10.1c-4.2-5.8-3.5-13.6-2.3-20.8c0.4-2.1,0.7-4.8,0.8-6.8C394.9,281.2,395.8,283.8,397,285.7z"></path>
		</g>
		
			<rect x="401.5" y="335.9" transform="matrix(7.812262e-03 -1 1 7.812262e-03 94.522 767.7911)" fill="#242326" width="65.3" height="0.6"></rect>
		<g>
			<path fill="#242326" d="M424.9,338.9c-3.5,2.7-6.2,6.6-7.7,11c-1.4,4.3-4.1,7.9-7.9,10.8c-5,3.9-10.5,6.6-15.9,9.3     c4.5-16.1,7.5-32,17.2-33.8C415.9,335.3,438.5,328.3,424.9,338.9z"></path>
			<path fill="#4B4A4C" d="M393.5,370.2l-0.3-0.1c12.3-23.8,21.1-32.9,35.2-36l0.1,0.3C414.6,337.4,405.7,346.4,393.5,370.2z"></path>
		</g>
		<path fill="#242326" d="M400.9,291.3h-0.3c0-15.5-1.5-25.1-3-25.1v-0.3C399.7,265.9,400.9,278.7,400.9,291.3z"></path>
		<path fill="#242326" d="M411.5,301.3h-0.3c0-15.5-1.5-25-2.9-25v-0.3C410.3,275.9,411.5,288.7,411.5,301.3z"></path>
		<path fill="#242326" d="M421,308h-0.3c0-6.9-0.7-12.5-1.1-12.8c0,0,0,0,0.1,0v-0.3C420.4,294.9,421,302.1,421,308z"></path>
	</g>
</g>
</svg>
