<svg xmlns="http://www.w3.org/2000/svg" width="20" height="18" fill="none" viewBox="0 0 20 18">
  <path fill="#fff" d="M17.813 2.976h-3.939v-.93A2.04 2.04 0 0013.27.6c-.387-.384-.911-.6-1.458-.6h-4.5C6.765 0 6.24.216 5.854.6a2.04 2.04 0 00-.605 1.446v.93H1.313a1.32 1.32 0 00-.928.382 1.298 1.298 0 00-.385.92v11.905c0 .345.139.676.385.92s.58.382.927.382h16.5c.348 0 .682-.138.928-.382s.385-.575.385-.92V4.278c0-.345-.139-.676-.385-.92a1.32 1.32 0 00-.927-.382zm-11.439-.93c0-.246.1-.483.275-.657a.942.942 0 01.663-.273h4.5c.248 0 .487.098.662.273.176.174.275.41.275.657v.93H6.374v-.93zm6.375 2.046V16.37H6.374V4.092h6.375zM1.125 16.182V4.279a.185.185 0 01.188-.186h3.936V16.37H1.313a.189.189 0 01-.188-.186zm16.875 0a.186.186 0 01-.188.187h-3.938V4.092h3.938a.188.188 0 01.188.186v11.905z"/>
</svg>
