<svg xmlns="http://www.w3.org/2000/svg" width="21" height="24" fill="none" viewBox="0 0 21 24">
  <path fill="#fff" d="M15 10.417c0 1.184-.474 2.32-1.318 3.156a4.518 4.518 0 01-3.181 1.308 4.518 4.518 0 01-3.182-1.308A4.446 4.446 0 016 10.417c0-1.184.474-2.32 1.318-3.157A4.518 4.518 0 0110.5 5.953c1.193 0 2.338.47 3.181 1.307A4.446 4.446 0 0115 10.417zm-1.5 0c0-.79-.316-1.547-.878-2.105a3.012 3.012 0 00-2.121-.871c-.796 0-1.56.313-2.122.871a2.964 2.964 0 00-.878 2.105c0 .79.316 1.546.878 2.104a3.012 3.012 0 002.122.872c.795 0 1.558-.314 2.12-.872a2.964 2.964 0 00.88-2.104z"/>
  <path fill="#fff" d="M17.925 17.79a10.382 10.382 0 003.076-7.369c0-2.763-1.106-5.414-3.076-7.369A10.503 10.503 0 0014.52.793a10.57 10.57 0 00-8.037 0 10.502 10.502 0 00-3.406 2.26A10.382 10.382 0 000 10.42c0 2.764 1.106 5.414 3.076 7.37l2.281 2.23 3.064 2.953.2.176a3.01 3.01 0 003.96-.175l3.652-3.527 1.692-1.658zM4.133 4.102a9.008 9.008 0 012.921-1.938 9.065 9.065 0 016.893 0 9.009 9.009 0 012.92 1.938 8.906 8.906 0 012.636 6.13 8.9 8.9 0 01-2.371 6.235l-.264.274-1.982 1.94-3.345 3.227-.14.119a1.503 1.503 0 01-1.8 0l-.14-.12-4.47-4.322-.858-.844-.264-.272a8.9 8.9 0 01-2.371-6.236c.049-2.304.993-4.5 2.635-6.13v-.001z"/>
</svg>
