<svg xmlns="http://www.w3.org/2000/svg" width="46" height="46" fill="none" viewBox="0 0 46 46">
  <path fill="#183B8C" d="M43.125 17.364c-.809 0-1.49-.282-2.044-.846-.554-.565-.831-1.233-.831-2.006v-4.68L24.842 25.12c-.54.535-1.19.802-1.954.802a2.673 2.673 0 01-1.954-.802 2.63 2.63 0 01-.809-1.939c0-.758.27-1.404.809-1.938L36.342 5.956h-4.717c-.809 0-1.49-.282-2.044-.847a2.792 2.792 0 01-.831-2.028c0-.787.277-1.455.831-2.005.554-.55 1.235-.825 2.044-.825h11.5c.809 0 1.49.275 2.044.825.554.55.831 1.225.831 2.028v11.408c0 .773-.277 1.441-.831 2.006-.554.564-1.235.846-2.044.846zM23 5.956c-3.115 0-5.997.765-8.648 2.295a17.052 17.052 0 00-6.289 6.239c-1.542 2.63-2.313 5.489-2.313 8.579 0 3.09.771 5.95 2.313 8.579a17.053 17.053 0 006.29 6.239c2.65 1.53 5.532 2.295 8.647 2.295s5.997-.765 8.648-2.295a17.053 17.053 0 006.289-6.24c1.542-2.629 2.313-5.488 2.313-8.578 0-.802.277-1.478.831-2.028.554-.55 1.235-.824 2.044-.824.809 0 1.49.274 2.044.824.554.55.831 1.226.831 2.028 0 3.09-.606 6.046-1.82 8.868-1.212 2.823-2.844 5.251-4.896 7.287-2.051 2.035-4.5 3.654-7.345 4.857A22.72 22.72 0 0123 45.886a22.72 22.72 0 01-8.94-1.805c-2.845-1.203-5.293-2.822-7.344-4.858-2.052-2.035-3.684-4.463-4.897-7.286A22.232 22.232 0 010 23.07c0-3.09.606-6.046 1.82-8.869 1.212-2.822 2.844-5.25 4.896-7.286 2.051-2.035 4.5-3.654 7.344-4.858A22.72 22.72 0 0123 .251c.809 0 1.49.275 2.044.825.554.55.831 1.218.831 2.005 0 .788-.285 1.464-.854 2.028-.569.565-1.242.847-2.021.847z"/>
</svg>
