<svg xmlns="http://www.w3.org/2000/svg" width="47" height="48" fill="none" viewBox="0 0 47 48">
  <path fill="#183B8C" d="M43.2 8.196H30.4v3.174h12.8v33.333H30.4v3.175h16V11.37c0-.842-.337-1.649-.937-2.244a3.213 3.213 0 00-2.263-.93zM25.408.26H3.392c-.9 0-1.762.354-2.399.985A3.352 3.352 0 000 3.625v44.253h28.8V3.625c0-.893-.357-1.749-.994-2.38A3.406 3.406 0 0025.409.26zm.192 44.443h-4.8v-4.762H8v4.762H3.2V3.625a.19.19 0 01.119-.176.193.193 0 01.073-.015h22.016a.194.194 0 01.177.118.19.19 0 01.015.073v41.078z"/>
  <path fill="#183B8C" d="M6.4 8.196h3.2v3.174H6.4V8.196zM12.8 8.196H16v3.174h-3.2V8.196zM19.2 8.196h3.2v3.174h-3.2V8.196zM6.4 16.132h3.2v3.175H6.4v-3.175zM12.8 16.132H16v3.175h-3.2v-3.175zM19.2 16.132h3.2v3.175h-3.2v-3.175zM6.4 24.069h3.2v3.174H6.4V24.07zM12.8 24.069H16v3.174h-3.2V24.07zM19.2 24.069h3.2v3.174h-3.2V24.07zM6.4 32.005h3.2v3.175H6.4v-3.175zM12.8 32.005H16v3.175h-3.2v-3.175zM19.2 32.005h3.2v3.175h-3.2v-3.175zM30.4 16.132h3.2v3.175h-3.2v-3.175zM36.8 16.132H40v3.175h-3.2v-3.175zM30.4 24.069h3.2v3.174h-3.2V24.07zM36.8 24.069H40v3.174h-3.2V24.07zM30.4 32.005h3.2v3.175h-3.2v-3.175zM36.8 32.005H40v3.175h-3.2v-3.175z"/>
</svg>
