<svg xmlns="http://www.w3.org/2000/svg" width="48" height="35" fill="none" viewBox="0 0 48 35">
  <path fill="#183B8C" d="M41.455 34.835H6.545C2.937 34.835 0 31.922 0 28.342V6.697C0 3.117 2.937.204 6.545.204h34.91C45.063.204 48 3.117 48 6.697v21.645c0 3.58-2.937 6.493-6.545 6.493zM6.545 4.533a2.177 2.177 0 00-2.181 2.164v21.645c0 1.193.98 2.165 2.181 2.165h34.91a2.177 2.177 0 002.181-2.165V6.697c0-1.193-.98-2.164-2.181-2.164H6.545zm13.091 19.48H10.91a2.19 2.19 0 01-1.543-.634 2.156 2.156 0 010-3.061 2.19 2.19 0 011.543-.634h8.727a2.19 2.19 0 011.543.634 2.156 2.156 0 010 3.061 2.19 2.19 0 01-1.543.634zm0-8.658H10.91a2.19 2.19 0 01-1.543-.634 2.156 2.156 0 010-3.061 2.19 2.19 0 011.543-.634h8.727a2.19 2.19 0 011.543.634 2.156 2.156 0 010 3.061 2.19 2.19 0 01-1.543.634z"/>
  <path fill="#183B8C" d="M32.727 18.602c2.41 0 4.364-1.938 4.364-4.33 0-2.39-1.954-4.328-4.364-4.328s-4.363 1.938-4.363 4.329c0 2.39 1.953 4.329 4.363 4.329zM32.727 20.455c-3.408 0-5.454 1.547-5.454 3.093 0 .772 2.046 1.547 5.454 1.547 3.199 0 5.455-.772 5.455-1.547 0-1.546-2.138-3.093-5.455-3.093z"/>
</svg>
